<svg xmlns="http://www.w3.org/2000/svg" xmlns:xlink="http://www.w3.org/1999/xlink" viewBox="0 0 1281.05 950.37"><defs><style>.cls-1{fill:none;}.cls-2{opacity:0.73;}.cls-3{clip-path:url(#clip-path);}.cls-4{opacity:0.33;}.cls-5{fill:#cbe9e5;}</style><clipPath id="clip-path" transform="translate(-15.65)"><rect class="cls-1" y="13.86" width="1243.23" height="999.36"/></clipPath></defs><title>bursh</title><g id="Layer_2" data-name="Layer 2"><g id="Layer_1-2" data-name="Layer 1"><g class="cls-2"><g class="cls-3"><g class="cls-4"><path class="cls-5" d="M1067,88l43.54,27.54c1.37.86,2.62-1.3,1.26-2.16l-43.53-27.54c-1.37-.86-2.62,1.3-1.27,2.16Z" transform="translate(-15.65)"/><path class="cls-5" d="M1115.76,136.28a140.86,140.86,0,0,1-11.08,58.54c-.63,1.48,1.79,2.12,2.41.66a142.66,142.66,0,0,0,11.17-59.2,1.25,1.25,0,0,0-2.5,0Z" transform="translate(-15.65)"/><path class="cls-5" d="M1074.82,152.24l32.88-18.61a1.25,1.25,0,0,0-1.26-2.15l-32.88,18.6a1.25,1.25,0,0,0,1.26,2.16Z" transform="translate(-15.65)"/></g><g class="cls-4"><path class="cls-5" d="M16.23,340.54l43.54,27.54c1.36.86,2.62-1.3,1.26-2.16L17.49,338.38c-1.36-.86-2.62,1.3-1.26,2.16Z" transform="translate(-15.65)"/><path class="cls-5" d="M65,388.84A141,141,0,0,1,53.9,447.39c-.63,1.48,1.79,2.12,2.41.66a142.68,142.68,0,0,0,11.17-59.21,1.25,1.25,0,0,0-2.5,0Z" transform="translate(-15.65)"/><path class="cls-5" d="M24,404.81,56.92,386.2a1.25,1.25,0,0,0-1.26-2.15l-32.88,18.6A1.25,1.25,0,0,0,24,404.81Z" transform="translate(-15.65)"/></g><g class="cls-4"><path class="cls-5" d="M1098.7,842l43.54,27.54c1.37.87,2.62-1.3,1.26-2.15L1100,839.87c-1.37-.86-2.62,1.3-1.27,2.16Z" transform="translate(-15.65)"/><path class="cls-5" d="M1147.45,890.34a140.86,140.86,0,0,1-11.08,58.54c-.63,1.48,1.79,2.12,2.41.66a142.44,142.44,0,0,0,11.17-59.2,1.25,1.25,0,0,0-2.5,0Z" transform="translate(-15.65)"/><path class="cls-5" d="M1106.52,906.3l32.87-18.6a1.25,1.25,0,0,0-1.26-2.16l-32.88,18.6a1.25,1.25,0,0,0,1.27,2.16Z" transform="translate(-15.65)"/></g><g class="cls-4"><path class="cls-5" d="M782,790.94c-1.3,2.38,21.38-13.43,25.61-16.05C801.29,776.58,776,795,782,790.94Z" transform="translate(-15.65)"/><polygon class="cls-5" points="702.83 809.27 712.35 803.22 687.81 816.31 702.83 809.27"/><path class="cls-5" d="M708.22,793.31c-37.84,28.14,10.13,1.37-1.79,13.63l-8.54,6.52L730,793.34C722.76,793.3,699,803.13,708.22,793.31Z" transform="translate(-15.65)"/><path class="cls-5" d="M786.37,727.07C771.64,738,772.1,734.2,783,732.31c1.52-1.33,2.44-2,3.58-3C786.12,729.13,785.84,728.63,786.37,727.07Z" transform="translate(-15.65)"/><path class="cls-5" d="M786.59,729.31c2.24.94,11.93-9.85,0,0Z" transform="translate(-15.65)"/><path class="cls-5" d="M772.56,727.56l15-7.12c8.58-6.62,9.21-10,16.19-13.73C794.8,709.53,786.28,716.14,772.56,727.56Z" transform="translate(-15.65)"/><path class="cls-5" d="M742.85,745.07l6.49-2.82C752.93,739.47,754,738.27,742.85,745.07Z" transform="translate(-15.65)"/><path class="cls-5" d="M763,736.33l-13.7,5.92c-6,4.66-18.57,13.39,5.11-1.9C742.84,748.1,754.19,740.94,763,736.33Z" transform="translate(-15.65)"/><path class="cls-5" d="M758.09,741.79c-7.57,7.06-11.78,12.3-26.71,19.38C739.61,761.65,766.45,742.23,758.09,741.79Z" transform="translate(-15.65)"/><path class="cls-5" d="M667.52,820.11l-10.28,9.42,14-7.54C664.28,825.72,679.62,811.65,667.52,820.11Z" transform="translate(-15.65)"/><path class="cls-5" d="M783,699.87c-8.31,5.61-21.38,16-31.78,23.55l10.56-5C766.81,713.7,770.88,708.49,783,699.87Z" transform="translate(-15.65)"/><path class="cls-5" d="M751.2,723.42l-15.8,7.44C735.24,734.17,742.23,729.88,751.2,723.42Z" transform="translate(-15.65)"/><polygon class="cls-5" points="683.96 774.5 716.42 757.84 683.04 774.02 683.96 774.5"/><polygon class="cls-5" points="761.84 689.81 781.8 677.87 751.38 695.54 761.84 689.81"/><path class="cls-5" d="M769.84,686c16.42-10,25.59-20.15,36-25.87-4,.28-18.49,8.34-31.52,15.62C782.08,672.28,781.37,675,769.84,686Z" transform="translate(-15.65)"/><path class="cls-5" d="M755.15,686c4.24-2,11.48-6,19.19-10.33A191.2,191.2,0,0,0,755.15,686Z" transform="translate(-15.65)"/><path class="cls-5" d="M736.59,723.89c4.83-3.66,17.57-13.12,22.1-18.34L736.27,722.7A11.09,11.09,0,0,0,736.59,723.89Z" transform="translate(-15.65)"/><path class="cls-5" d="M735.55,723.25l.72-.55a12.24,12.24,0,0,1-.14-3A34.8,34.8,0,0,1,735.55,723.25Z" transform="translate(-15.65)"/><path class="cls-5" d="M736.65,724.21a.54.54,0,0,0-.06-.32C734.38,725.58,733.66,726.17,736.65,724.21Z" transform="translate(-15.65)"/><path class="cls-5" d="M716.18,753.66c-13.92,7.59-29.82,14.37-47.58,30.94C685.14,774.56,695.24,765.1,716.18,753.66Z" transform="translate(-15.65)"/><path class="cls-5" d="M708.6,745.61l-3.51,6.24c6.07-4.31,14.65-11,21.55-14.78Z" transform="translate(-15.65)"/><polygon class="cls-5" points="684.75 749.5 692.95 745.61 694.24 743.3 684.75 749.5"/><path class="cls-5" d="M736.71,705.66c-10.8,6-12.5,5.36-15.07,5.14-3.48,4.65-4.87,7.89-3.82,9.3C725.21,715.19,738.63,706.67,736.71,705.66Z" transform="translate(-15.65)"/><path class="cls-5" d="M734.13,715.64c-.58.3-.91.38-1.49.68C730.8,717.85,730.25,718.41,734.13,715.64Z" transform="translate(-15.65)"/><path class="cls-5" d="M712.23,697.31l-4,3.19,4-2.77Z" transform="translate(-15.65)"/><path class="cls-5" d="M713.7,723.37c-3.68,4.24,2.41.92,10-3.46-2.9.81-5,1-5.85.19C714.5,722.31,712.33,723.81,713.7,723.37Z" transform="translate(-15.65)"/><path class="cls-5" d="M741.71,689.89c-4.41,4-8,7.52-11.29,10.87C737.31,695,747.84,685.84,741.71,689.89Z" transform="translate(-15.65)"/><path class="cls-5" d="M738.76,711.46c.4-.2.86-.45,1.14-.55C744.6,707.06,742.21,708.81,738.76,711.46Z" transform="translate(-15.65)"/><path class="cls-5" d="M738.76,711.46c-3.72,1.77-9.72,5.33-15.09,8.45a50.64,50.64,0,0,0,9-3.59C734.18,715,736.56,713.16,738.76,711.46Z" transform="translate(-15.65)"/><path class="cls-5" d="M562,798.54c21.39-15,43.06-26.26,22-7.59,17.64-9,86.6-60.39,124.22-90.45-9.34,6.55-17.93,12.66-32.27,19.14-11,9.18-23.25,24.89-44,36.53-13.3,4.56,5.62-8,15.73-17.67-25.56,20.28-41.53,23.43-79.95,52l15.72-7C577.42,787.91,567,793.81,562,798.54Z" transform="translate(-15.65)"/><path class="cls-5" d="M709.45,706.84l3.37-.84c2.89-3.82,10.8-10.72,26.35-24.15a198.34,198.34,0,0,0-27,15.88l.68,7.2Z" transform="translate(-15.65)"/><path class="cls-5" d="M716.24,710.57c-23.79,15.64-35.4,20.19-59.43,39.5,3.74,1.84,20.87-11.65,32.23-17-9.23-.78,13.92-7.74,24.58-20.6,4.63-1.83,6.46-1.82,8-1.69a114.54,114.54,0,0,1,8.78-10l-1.36,1.13.09,0-.37.26c-2.74,2.26-4.45,3.58-2.94,2.15a1.77,1.77,0,0,1-.55.23c-3.26,2.26-6.14,4.16-8.92,6,3.78-4.81,5.87-4.49,8.92-6l3.49-2.38.28-.23L712.82,706C710.36,709.32,711.94,710.15,716.24,710.57Z" transform="translate(-15.65)"/><path class="cls-5" d="M616.65,817c2-1.59,3.62-2.74,5.31-3.93C618.89,814.77,616.85,816,616.65,817Z" transform="translate(-15.65)"/><path class="cls-5" d="M629.35,805.22c3.5-1.93,13-8.15,11.41-5.33-6.31,5.87-11.17,7.79-18.8,13.2,6.65-3.64,18.4-9.28,28.23-19.35l-3.41,1.88c6.66-7.53,34-30.39,37.4-32.29C663.62,778.58,649,789.54,629.35,805.22Z" transform="translate(-15.65)"/><path class="cls-5" d="M666.91,762.07l-14.23,4L634,782.3l12-8.62C642.87,779.31,657.41,768.33,666.91,762.07Z" transform="translate(-15.65)"/><polygon class="cls-5" points="707.77 688.63 732.61 671.74 696.39 694 707.77 688.63"/><polygon class="cls-5" points="701.02 685.4 722.42 670.39 708.6 678.15 701.02 685.4"/><path class="cls-5" d="M242.56,604.2,236,608A47,47,0,0,0,242.56,604.2Z" transform="translate(-15.65)"/><path class="cls-5" d="M247.6,613l10-8.12C251.86,609.06,247.75,612.29,247.6,613Z" transform="translate(-15.65)"/><path class="cls-5" d="M618.44,558.15c18-16.61,46.44-41.7,23.35-23.51l-22.23,18C624.53,550.74,622.71,553.61,618.44,558.15Z" transform="translate(-15.65)"/><path class="cls-5" d="M417.47,579.7l-6.37,5.95,22.14-16.18Z" transform="translate(-15.65)"/><path class="cls-5" d="M324.61,653.33l12.63-13.71A172.41,172.41,0,0,0,324.61,653.33Z" transform="translate(-15.65)"/><path class="cls-5" d="M184.26,583.13l-23,18C163,602.87,173.35,592.39,184.26,583.13Z" transform="translate(-15.65)"/><path class="cls-5" d="M668.79,637.4c7.9-8.14,10.8-12.13,11.15-14C668.06,635,649.27,651.1,668.79,637.4Z" transform="translate(-15.65)"/><path class="cls-5" d="M476.73,410.56a100,100,0,0,0-14.07,10.3A80.08,80.08,0,0,0,476.73,410.56Z" transform="translate(-15.65)"/><path class="cls-5" d="M676.64,619.14c-2.1,2-3.08,3.09-4.82,4.79,4.67-1.76,8.61-3,8.12-.54C688.81,614.76,693.7,608.75,676.64,619.14Z" transform="translate(-15.65)"/><path class="cls-5" d="M69.41,422.83c.83-1,1.15-1.55,2.15-2.69C68.75,422.79,68.72,423.08,69.41,422.83Z" transform="translate(-15.65)"/><path class="cls-5" d="M224.71,171.28c1.81-.81,2.95.06,4.24.63C229.72,170,228.71,169.42,224.71,171.28Z" transform="translate(-15.65)"/><path class="cls-5" d="M711.44,656.66c2.34,0,2.69-1.68,0,0Z" transform="translate(-15.65)"/><path class="cls-5" d="M623.61,728.45c-2.78,1.65-6.23,3.87-11.61,7.71C617.66,732.22,621.32,729.8,623.61,728.45Z" transform="translate(-15.65)"/><path class="cls-5" d="M525.57,714.72s0-.12,0-.15C521.32,718.24,522.14,717.55,525.57,714.72Z" transform="translate(-15.65)"/><path class="cls-5" d="M702.13,666a57.08,57.08,0,0,0,5.84-6.42A65.31,65.31,0,0,0,702.13,666Z" transform="translate(-15.65)"/><path class="cls-5" d="M712.93,657.82c-.76,1.14-1.11,1.86-1.53,2.61C715.37,657.77,717.71,655.89,712.93,657.82Z" transform="translate(-15.65)"/><path class="cls-5" d="M709.05,656c.83.38.17,1.77-1.08,3.56a23.6,23.6,0,0,1,3.47-2.9A7.11,7.11,0,0,1,709.05,656Z" transform="translate(-15.65)"/><path class="cls-5" d="M198,447.85c.61-.67,1-1.13,1.81-2C190.1,452.87,191.9,452,198,447.85Z" transform="translate(-15.65)"/><path class="cls-5" d="M362.37,713.32c.26-.13.87-.57,1.18-.74l.67-.77Z" transform="translate(-15.65)"/><path class="cls-5" d="M342.73,722.86C372,702.37,369.22,706,364.22,711.81l64-52.23Z" transform="translate(-15.65)"/><path class="cls-5" d="M220.8,591.56l-17.4,19.22c-34.64,24.66-25.36,13.05-50.85,38.92,34.12-29.08,37.89-28.21,41.66-27.34s7.52,1.76,41.7-27.17L223,609.06c.26-1-3.81,2.33-3.53,1.29-29.95,31,51.3-39.76,45.12-27.37-4,5.88-13.08,15.31-22,21.22L262.14,593c-.54,2.06-12.6,11.9-12.08,9.87l9.56.25-2.05,1.67c11.33-8.4,29.25-20.84,37-26-8.78,9.55-7.8,5.51-16.07,13.05l18.89-11.29c-16.83,16.08-35.95,28.36-35,24.36-33.12,30.13-28.35,27-19.71,21.32s21.16-14,3.43,5.48l-10.83,4.79c-37.54,34.37-21.79,24.46-43.71,47.66,12.15-11.28,56.4-57.06,75.94-68.52-4.49,5.18-6.05,8.33,9.11-1.68-24.41,20.49-17.12,17-14.12,17.76L230,658.68c11.08-5.75,27.44-19.7,43.07-30.66-1.23,5-26,26.41-46.68,44.58-2.06,8,38.14-36.1,47.94-36.81-9.82,13.42,5.2,4.58,27.77-7.77-9.4,11.46-20.21,16.07-28.88,24.56l27.56-19.51c-.23,1-8.34,7.42-12.43,10.67C299.76,637.06,321,617,332,612.31,350.21,597.87,338.2,610,327,622s-21.48,23.66.26,8.52c-8.62,8.38-20.32,16-32.76,26.62,30.39-17.58,22.54-12.21,61.64-38.08l-18.94,20.6c22.72-22.29,54.18-43.1,80.23-59.92,11.2-10.48,21-19.65,25.58-24.15l21-10.09c-5,4.88-16.57,13.59-30.81,24,2.93-1.9,5.83-3.81,8.47-5.6-10.9,11.33-30.46,25.89-49.62,39.7l19-17.92c-20.75,15.15-43.55,32.13-62.55,47.94a57.3,57.3,0,0,1,9.94-5.87c-5.61,4.13-10.58,7.89-13.75,10.67-3.34,2.94,4.26-2.54,13.15-8.65l-35.78,30.59,14.69-11.56-18.62,23.86c39.87-26,96.87-66.41,117-72.35-28.16,20.06-44.23,35-76.19,60.45,32.41-28.76-18.13,6.82-13.78-1.81-2.22,4.48-17.69,16.35-23.32,20.21L357.08,660c-26.18,20.81-18.59,16.88-28.21,27,50.68-42.45,37.7-23.35,55.38-33.72-17.24,14-35.38,27.59-33.43,21.48-36.43,34.1,63.85-44.48,33.25-15.07-1-.34,1.39-2.84-7.64,3.93,16.71-10.7,7.62,2.94-8.26,14l-.9-.4c-2.51,9.38,10.47,14.11,55.14-19.94-5.66,4.54-53.63,41.29-62.75,48q77.34-54.45,155-108.51c-38.49,29-126.7,102.65-151.07,115.7-4.55,5.32-9.83,11.59,5.35,3.36,4.83-5,53.42-44.83,57.7-46.53-40.09,35.89-21.07,19.65-54.46,51.24,7.28-7.47,67.83-52.78,67.33-49.5-9.13,6.68-58.74,46-65.44,50.23l62-41.23c-11.42,7.11-49.79,38.44-65.6,52.28,11.13-9.37,1.87,4.57,8.55,1.23l12.18-12.4c-5.08,11.8,86.3-59,87.09-51.55-12.62,8.75-75.84,56.15-81.33,64.35,15.49-11,52.68-37.66,89.36-63.14s72.87-49.83,86.23-56.44l-16.57,14.08L578.26,617c-23.57,16.27-60.41,41.17-96.27,65.23s-70.74,47.26-90.51,60c-12.23,12.34-19.91,16.13-16.25,17.69-15.41,13.37-25.65,17.33-27.21,17.26l-5.57,14.34c35-27.29,39.09-22.17,68.29-44.84l-41.88,21c17.46-13.61,43.21-31.77,64.3-45.31s37.49-22.49,36.16-17.78c-13.14,11.88-63.47,47-75.16,56.11,12.6-8.69,26.53-13.35,18.24-6.37L392,766.7c-11.36,12.62,50-31.44,18.62-2.77-1.45,2.78-43.17,37.66-22.1,22,39.09-32.26,163.64-127.23,194.87-149-2.42,2.46-34.22,35-53.26,51.34C499.8,714,452.61,742.58,426.54,764.63c9.72-7.23,22.39-15.26,26.53-17.75-7.42,7.36-30.33,22.14-24.13,21.28,36.25-26.65.69,7.25,31.25-21.71,12.08-5.33-5.48,8.11-1.8,9.74,22.57-18.35,81.08-56.79,93.21-62-9.27,6.7-20.78,16.17-26,20.51.51,7.44-13.88,22.31-10.71,27.18-8.42,6.92-17.36,17-33.63,27.57,6.89-4.07,19.59-12.53,21.52-11.74-29.25,25.9-7.2.41-43.23,30.32,21.14-15.37,31.69-17.76,46.35-25.41,32-24.59,2.74-9.35-11.86-1.68,44.74-33.16,94.27-64.24,118.7-74.47,14.06-4.2-27.73,23.06-20.84,19-2.42,13.18,83.11-51.12,55.27-21.11-26.85,23.39-56.95,41.73-77.22,57.36-13.19,4.73,14.59-18.21,11.84-19.56l-11.59,12.6c-10.26,5.94-19,9.11-11.6,1.87-24.23,20.87,4.17,16.06-15.5,39,10.36-6,21.6-11.46,32.56-20.66l-5.33,1.11c21.94-18.47,34.53-19.82,43.67-30,18.08-9.38,45.7-25.1,35.09-12.13l-32.37,24.32c9.54-7,17.93-16.37,7.23-10.12,15.6-9-40.63,37.32,3.5,7.94l21-18.81c18.27-9.41,55.39-31.35,47.27-20.77,31.45-24.71-4.23,2,32.16-27.55-45.87,35.87-3.78-9.49-51.18,29.33,42.41-34,15.86-17.39,51.21-47.5-10.74,7.91-19.92,16-16.49,9.52-3.24,2.16-7.46,4.79-9.95,6.31.23-.28.4-.44.68-.76L701,667.05c-1.7,1.06-2.05,1.3-.4.38-4.27,4-9.6,8.67-15.49,13.24-25.76,16.65-28,12-41.84,19.9,4-5.26,12.85-8.35,23.76-17.56l-20.71,11.86c23.84-17.63,36.81-33.08,53.53-39.64l-1.35-4.08c12-11.74,15.38-18.34,4.1-12.63,4-5.35-29.35,15.45-9.64,3.09l-18.59,5.7,5.94-4.44c-.37-3.66-12.17,1-19,1.88s-8.73-2,10.57-20.82c-7.28,2.75-15.94,6.46-11.32-1.41l20.15-15.87c-8.81,3.17,15.61-22-6.5-6.91,26.74-21.85,27.72-26.81,22.91-27.68s-15.44,2.34-12-3.28l-26.84,20c-.48-3.8-10-.63-23.15,4.23L611.66,611.1c-21.49,11.92,11.26-19.89,5.44-22.5,9.22-6.56,7.73-3.64,2.91,1.3,24.54-22.92,12.71-18.37-.83-12.32s-28.81,13.58-11.35-3.67c-9.45,5.37-7.2,2.27-2-3.11.14.07.65-.17,1.46-.65a.5.5,0,0,0-.1-.71c3.63-3.64,7.9-7.8,11.2-11.29-5.31,4.9-9.63,9-11.48,11.09-1.19-.55-5.18.3-12.09,3.46l24.69-20c-.42.15-.43,0-1,.23,8.24-8.53-12.73,8.13-31.09,23.48-4.66,2.51-10.11,5.73-16.54,9.94,39.71-32.52-16.38,7,25.68-28-21.79,15.46-21.21,5.5-66,39.33,5.73-4.54,8.16-7.08,9.09-6.63,3.88-5.44,7.73-10.87-5.78-2.46L565.28,563l-45.34,30.25c17.83-17.17,28.42-26.85,54.44-44.06C533,574,557.15,556.45,516.74,581.74l20.68-16c-1.93-.84-31.2,18.55-14.94,4.3,18.2-17,16.43-22.13,13.72-27.53s-6.25-11.15,8.42-29.74c-58.71,49.75,23.79-25.45-23,11.56,13.78-11.87,20.86-19.48,34.27-28-17.33,7,17.3-24.53-24.17,4.13,13.82-12,21.48-15.86,29.53-23.09-3.33,2.13-13.39,8.6-5.3,1.32s12.37-9,19.08-13.29c-5.91-2.47-49.81,32.42-90.93,65.27,17.61-17.87,14-16.76-14.06,3.48,12.74-11.6,25.68-24.24,32.65-25.49.74-3.06,12-25.08-20.73,1.47,7.9-7.23.72-4.05-3.37-1.36-.79-4.92,1.9-7.63-3.87-8.36l-4.58,5.28c-40.36,31-11,4.51-17.87,5.77l4.08-3.25c23.35-29.41-15.68,8.63,11.7-24L444,504.67c-26.44,21.45-19.78,13.74-9.39,2.3s24.48-26.61,13-20l-12.85,12.8c-9.74,6.53,7-9.58,26.68-28.27s42.47-40,44.93-43.65c4.19-4.21,7.84-5.43,11.7-7.66,26.57-30.78-32.37,25.95-42.87,28.43,16.56-15.05,44.34-35.64,45.41-40.83,6.41-6.45-9,3.38-22.32,11s-24.39,13-9.44-2.58c-12.54,11.88-25.07,23.71-36.41,30.35-6.88,1.38,43.74-49.23.29-16.47,3.31-3.38,6.65-6.43,9.9-9.21-12.36,7-23.31,8.6-46.73,26.53,40.81-36.4,28-30.9,14.66-24.4s-27.27,13.95,11-18.9l-9.37-2.61,7.94-6.57c1.67-8.29-17.81,6.13-37.27,20.61,4.41-5.4,12.08-10.9,16.14-14.29,10.46-19,6.68-16.86-35.33,11.46l24.21-22c-7.73,5.61.14-4.86,5.72-14.32s8.85-17.91-7.92-8.09c2.83-2.39,7.69-6.47,11.55-9.07-17.17,9.54-3.44-9.2,3.1-20.82s5.95-16.09-39.57,22.35l-25.57,15.45c-2.21,11.38-39.3,33.62-52.15,48.92-7,2.64,22.09-29.18,28.91-30.75l-4.09,4.36c47.17-40.41,10.58-21.14,42.2-49.2-5.8-4.17-4.58-14.52-2.8-25.31s4.17-22,.66-27.76L333.28,330.1l-1-5.21c7.49-8.47,26.78-26.68,27.52-22.92,19-19.73-20.62,11.42-28.42,18.46,10.1-17.91,43.21-36.18,42.75-38.4l-4.48.46-3.75,4.26c-16,11.73-31.55,25.73-32.44,21.24,5.44-8.36,21.06-21.09,21.77-23.07,2.52-2.31,3.48-3.65,0-2.05l-.89-7.06-26.46,27.54c-15.54,10.87-2.18-5.32-32.13,25.91,23.16-24,23.91-32,20.59-36s-10.76-3.84-4-11.75c-22.75,16.35-24.78,13.49-25.32,8-5,6.21-35.87,36-34.58,29.71,65.4-59.55,23.3-31.25,67.5-77.12-28.82,30.93-14.94-.67-55.53,43.61,3.06-7.19,23.91-22.88,37.39-38.93-15,9-13.76,2.21-10.69-6.73s8-20,.6-19.36c-8.48,7.93-20.22,21.32-34.06,31.85l38.48-43.71c-5.4,2.62-49.46,45.23-22.75,14.89-6.71,7.11-16.83,17.83-20.35,19.52,7.06-13.05,6.87-19.26,3.66-22.56a14.13,14.13,0,0,0-6.59-3.26c-2.6-.68-5.48-1.16-8.23-2-5.51-1.78-10.24-4.94-10.59-13.82a53.51,53.51,0,0,1,3.11-18.2c2.51-7.78,6.54-17.54,12.4-30-5.81,9.81-9.65,14.66-12.29,17s-4.15,2-5.49,1.48c-2.1,5.25-18.56,21.86-28.44,34.1q10.28-19.84,19.41-40.34c-14.44,16.47-17.1,15.39-19.66,14.23s-4.91-2.43-17.77,14.06q3.56-2.15,7.15-4.25a354,354,0,0,0-24.13,30.62c-7.9,11-15.79,22.69-24,34.7s-16.68,24.26-25.62,36.63-18.32,24.8-28.1,37.19c9.1-10.67,10.89-11.63,9.12-8.12s-7.12,11.52-12.1,18.85-9.57,14-9.54,15.21S80,351.63,94,337.22a151.61,151.61,0,0,1-11.12,12.64c-3.68,3.85-7.5,7.87-12.19,13.5,9.23-9.93,15-15.73,17.72-17.73s2.23-.22-1.27,4.82l-4.7,4.79a3,3,0,0,1,1.21-.05,1.29,1.29,0,0,1,.76.53,3.36,3.36,0,0,1,.14,2.4A21.7,21.7,0,0,1,83.15,362c-.66,1.54-1.52,3.27-2.52,5.12-3.9,7.53-9.85,17.32-12.71,27.17L89.81,372c-1.5,4.49-8.21,11.65-13.12,17.83,35.73-31.23-2.31-6.26,36.74-41.06C91.64,372,94.11,374.9,95.74,378.51s2.39,7.87-22.95,33.66c2,2.65,25.37-25.84,27.38-23.14L86.69,403.24l18.74-16.88c-1.47,4.47-18.34,22.21-30.23,33.75,1-1.74-4.38,2.14-5.79,2.72-14.67,18,11.16.25,6.42,6.15l6.49-10.63c9.74-3.08,11.9,1.83,16,4.84s10,4.22,27.44-6.24L136,406.31c24.46-13.82-8.08,15.07,6.17,11.78l-2.74,2.22c11.72-9,18.48-12.62,18.66-10-13.88,10.46-22.09,25.53-37.7,36.82,26.35-14.74,19.23-13.13,62.61-47l-17.11,17.51c17.32-13.9,26-21.75,33.17-23.35-17.48,12.09-25.67,27.13-48.34,43.58-16.94,21.06-5.15,14,4.1,8.61s15.85-9-11.69,18.91c52.16-43.36,23.06-30.49,35.05-38.87,15.09-16.29,39.16-32.22,35.84-25.77.61,2.89-60.77,61.92-55.64,65.59-.18-.67-4,2.77-4.19,2.12C143,481.83,174.5,456,155.75,477c31.28-26.49.77,4.31,39.62-30.62l-12.8,3.94c12.25-6.87,59.45-45.85,41.24-21.86-8.07,6.79-19.4,14.95-25.85,19.36-10.31,11.55,9.6-4.66-1,7.2C158,490,183.85,457.6,152.11,482c-15.17,16.13,32.35-20.76-10.61,16.18,27.41-23.38,26.78-20.71,24.7-16.47s-5.58,10.06,16.17-6.88L159,495.67c4.09-2.82,16-11.76,16.18-10.3L143.66,511c27.91-20.78-18.09,25.18-2,14.9-5.23-4.36,27-26.46,42-43.94,36.73-21.85-57.5,58.58-40.15,55.4-4.12,2,10.81-16.12,22.9-24.37-3.59,5.65-11,15.44-22.45,27.24,9,.23,23.33-22.25,39.4-33.16-27,27.08,13.6-8.11,24.54-14.21l-23.7,21.27c-10.47,18.89,50.71-42.85,36.62-21.6L186.07,520l10.74-5.12-27.48,23.61c22.45-15.21,18-9.74,12.8-.34,16.22-15.53,43.48-38.05,46.33-36.32C215.74,516,205,521,211.39,521.31c-15.58,12.45-35,28.23-14.35,7.3-7.89,6.75-15.6,12.53-23.39,19.18-14.75,16.16.08,7.61,1.36,8.63.49-1.26,1.28-2.94,4.43-6.24l37.31-24.38c-8.29,8.68-16,14.43-23.6,20.05,3.44-1.3,15-10.3,18.34-10.66-19.74,16.73-39.71,34.49-50.62,40.53l25.57-14.41c-8.17,7.74-21.15,22.76-28.83,28.46-9.24,12.53,43.2-26.91,31.07-10.31A70.28,70.28,0,0,1,200,571.8c-1.6,7-23.12,30.64,6.92,11.18l-33.23,32.53c10.51-3.93,41.68-41.19,59.18-47.67C247.06,561.69,204,595,195.29,604.7c19.18-13.57,57.89-41.56,32-13.71C219.78,595.62,224.27,590.31,220.8,591.56Zm47.09,23.65c-5.72,3.57-22.7,15.41-8.77,2.79C287.72,595.33,274.9,607.22,267.89,615.21ZM374.55,624c-8.64,6.07-5.27,1.93,3.31-6.63C380.45,616.41,380.18,618,374.55,624Zm307,35.64c-.44.26-.77.47-1.31.82C688.88,651.3,685.39,654.84,681.5,659.62Zm-8.41,11.91a88.8,88.8,0,0,0,10.9-7.64c-6.71,4.48-7.77,4-6.65,1.66C670.79,670.74,666.49,674.62,673.09,671.53ZM346.22,292.47l-5.53,6.32C332.57,303.48,339.05,298.3,346.22,292.47Z" transform="translate(-15.65)"/><path class="cls-5" d="M335.38,644.82c4-3.6,8.56-7.4,13.17-11.23A86.54,86.54,0,0,0,335.38,644.82Z" transform="translate(-15.65)"/><path class="cls-5" d="M188.51,579.8c.16-.2.05-.17.17-.34-1.49,1.19-3,2.43-4.42,3.67Z" transform="translate(-15.65)"/><path class="cls-5" d="M414.46,775.92a127.89,127.89,0,0,1,12.08-11.29C420.28,769.29,415.28,773.58,414.46,775.92Z" transform="translate(-15.65)"/><path class="cls-5" d="M731.52,660,723,662.34c2.13.27-3.21,4.77-6.89,8.32C722.15,666.25,730.55,659.49,731.52,660Z" transform="translate(-15.65)"/><path class="cls-5" d="M586.2,795.48c3.42-1.91.86.49,4.33-1.47l12-8.66C600.69,784.44,590.24,790.32,586.2,795.48Z" transform="translate(-15.65)"/><path class="cls-5" d="M647.24,724c-21.61,15.82-13.16,12-7.93,10.8-.15,0-.4,0-.21-.3C669.91,713.14,658.54,718.57,647.24,724Z" transform="translate(-15.65)"/><path class="cls-5" d="M640.33,734.65c1.39-.21,2.34-.09,1.65,1.16C654.33,727.26,644.08,733.36,640.33,734.65Z" transform="translate(-15.65)"/><path class="cls-5" d="M691,665.88c-5,4.85,28.09-19.62,19.58-12.75C738.79,634,673.23,672,691,665.88Z" transform="translate(-15.65)"/><polygon class="cls-5" points="560.89 776.82 587.32 756.94 565.02 771.56 560.89 776.82"/><path class="cls-5" d="M586.88,749.57l-5.52,8a51.47,51.47,0,0,1,9.65-5.9C590.73,749.4,594.78,743.76,586.88,749.57Z" transform="translate(-15.65)"/><path class="cls-5" d="M591,751.68c.09,1.23,1.24,1.62,6-1.07C596.37,750.35,594.77,750,591,751.68Z" transform="translate(-15.65)"/><polygon class="cls-5" points="550.26 779.01 555.3 774.21 555.93 770.93 550.26 779.01"/><path class="cls-5" d="M571.32,717.52l-9.73,2.75c-9.34,6.44-14.35,11.33-9.94,9.72C558.51,726,562.82,724.45,571.32,717.52Z" transform="translate(-15.65)"/><path class="cls-5" d="M504.63,779.72c5-4.81,10.89-9.23,19.37-16.1l-33.13,24.15Z" transform="translate(-15.65)"/><path class="cls-5" d="M490.92,777.19c-9.38,6.46-29.25,15.31-24.59,17.32C475.61,788.1,485.28,785.31,490.92,777.19Z" transform="translate(-15.65)"/><polygon class="cls-5" points="485.31 703.91 486.26 704.31 539.82 663.68 485.31 703.91"/><path class="cls-5" d="M345.34,765.12c-10.31,13,33.4-24.6,19.7-9.41,13.16-9,11.17-12.4,22.63-20C372.91,744,379.63,737.19,345.34,765.12Z" transform="translate(-15.65)"/><path class="cls-5" d="M387.67,735.69c2.33-1.3,5.13-2.94,8.85-5.24A102.7,102.7,0,0,0,387.67,735.69Z" transform="translate(-15.65)"/><path class="cls-5" d="M234.89,133.73c1.65-4.58,3.24-9.15,4.8-13.76q-5.56,9.89-11.26,19.68Z" transform="translate(-15.65)"/><path class="cls-5" d="M198.41,169.21l24.51-35.15q-12.53,15-24.86,30.1C199.91,163.09,203.57,161,198.41,169.21Z" transform="translate(-15.65)"/><path class="cls-5" d="M206.37,676.14l8-6.47c8.29-7.46,8.55-8.46,9.11-10.5Z" transform="translate(-15.65)"/><polygon class="cls-5" points="192.86 628.92 192.59 629.93 221.35 603.96 192.86 628.92"/><path class="cls-5" d="M152.07,639.06c-.45,1.94,7-2.65,6.52-.68C151.62,641,188.4,607.22,152.07,639.06Z" transform="translate(-15.65)"/></g><g class="cls-4"><path class="cls-5" d="M1268.74,857.7c-1.29,2.86,23.34-9.72,28-11.58C1289.58,845.55,1262.32,860.93,1268.74,857.7Z" transform="translate(-15.65)"/><path class="cls-5" d="M1198.67,859.1l10.08-5.08q-13.1,4.85-26.13,10C1188,862.32,1193.32,860.67,1198.67,859.1Z" transform="translate(-15.65)"/><path class="cls-5" d="M1185.36,836c-19.2,13.71-16.42,14.55-10.19,13.75s15.87-3.18,9.88,3.16l-8.83,6.16q16.82-8.81,33.7-17.47c-4.12-1.06-12.52-.05-18.75.18S1180.9,841.21,1185.36,836Z" transform="translate(-15.65)"/><path class="cls-5" d="M1262.21,767.35c-14.64,11.09-15.06,5.9-2.64,6.37,1.46-1.42,2.37-2.15,3.48-3.15C1262.44,770.18,1262,769.39,1262.21,767.35Z" transform="translate(-15.65)"/><path class="cls-5" d="M1263.05,770.57c2.92,2,11.63-10.32,0,0Z" transform="translate(-15.65)"/><path class="cls-5" d="M1246.05,764.29c5.26-2,10.54-4,15.84-5.93,8.41-6.93,8.21-11.41,15.47-14.76C1267.45,745.11,1259.24,752.14,1246.05,764.29Z" transform="translate(-15.65)"/><path class="cls-5" d="M1215.75,781l6.83-2.35C1226.09,775.75,1227.05,774.38,1215.75,781Z" transform="translate(-15.65)"/><path class="cls-5" d="M1237.1,773.84q-7.29,2.37-14.52,4.81c-5.88,4.86-18.38,13.64,5.48-1.4C1216.42,785,1227.88,778,1237.1,773.84Z" transform="translate(-15.65)"/><path class="cls-5" d="M1232.62,780c-7.15,7.73-10.94,13.64-26.58,19.61,4.73,1.21,13.85-3,20.55-7.81S1237.53,781.39,1232.62,780Z" transform="translate(-15.65)"/><path class="cls-5" d="M1143.61,861.12l-10.33,9.48,14.5-6.62c-3.6,1.63-1.54-1.08-.14-3.22S1149.78,857.07,1143.61,861.12Z" transform="translate(-15.65)"/><path class="cls-5" d="M1250.67,729.2c-8.15,5.84-20.51,17.18-30.6,25.1l11-4.56C1235.64,744.44,1239,738.32,1250.67,729.2Z" transform="translate(-15.65)"/><path class="cls-5" d="M1220.07,754.3q-8.17,3.44-16.29,7C1204.42,765.49,1211.38,761.13,1220.07,754.3Z" transform="translate(-15.65)"/><path class="cls-5" d="M1172.69,810.71q16.63-7.82,33.47-15.31-17.42,7.1-34.58,14.57Z" transform="translate(-15.65)"/><path class="cls-5" d="M1241.23,714.91,1261,702.57q-15.21,9-30.31,18.15Z" transform="translate(-15.65)"/><path class="cls-5" d="M1231.17,708.81c16.09-10.65,23.67-22.42,34.09-28.36-4.63-.23-19.07,8.18-32,15.86C1241.24,692.91,1241.29,696.34,1231.17,708.81Z" transform="translate(-15.65)"/><path class="cls-5" d="M1214.26,707.18c4.29-2.06,11.43-6.35,19-10.87C1229.07,698.14,1223.35,701.21,1214.26,707.18Z" transform="translate(-15.65)"/><path class="cls-5" d="M1203.38,752.6c4.59-4,16.74-14.17,20.53-20.2l-21.2,18.66A16.37,16.37,0,0,0,1203.38,752.6Z" transform="translate(-15.65)"/><path class="cls-5" d="M1202,751.66l.68-.6a19.43,19.43,0,0,1-.94-3.75A42.2,42.2,0,0,1,1202,751.66Z" transform="translate(-15.65)"/><path class="cls-5" d="M1203.53,753a1,1,0,0,0-.15-.4C1201.29,754.43,1200.61,755.07,1203.53,753Z" transform="translate(-15.65)"/><path class="cls-5" d="M1187.21,787.2c-7.06,3.71-14.7,7.13-22.62,11.91A111.35,111.35,0,0,0,1140.14,819c8.22-5.13,14.71-10.22,21.77-15.48A184,184,0,0,1,1187.21,787.2Z" transform="translate(-15.65)"/><path class="cls-5" d="M1176.85,776.12l-2.55,7.29c5.88-4.57,14-11.79,21-15.57C1189.12,770.56,1183,773.28,1176.85,776.12Z" transform="translate(-15.65)"/><polygon class="cls-5" points="1152.86 779.99 1161.21 776.12 1162.13 773.43 1152.86 779.99"/><path class="cls-5" d="M1198.68,729.81c-10.68,6.32-12.75,5.43-15.71,4.91-2.72,5.43-3.46,9.26-1.91,11.07C1188.14,740.44,1201.15,731.25,1198.68,729.81Z" transform="translate(-15.65)"/><path class="cls-5" d="M1198.41,741.89c-.58.29-.94.36-1.52.67C1195.19,744.25,1194.71,744.9,1198.41,741.89Z" transform="translate(-15.65)"/><path class="cls-5" d="M1169,718c-1.26,1.24-2.37,2.34-3.65,3.62l3.73-3.14Z" transform="translate(-15.65)"/><path class="cls-5" d="M1177.25,749.42c-3.09,4.83,2.94,1.31,10.38-3.34-3.08.72-5.41.76-6.57-.29C1177.87,748.19,1175.81,749.84,1177.25,749.42Z" transform="translate(-15.65)"/><path class="cls-5" d="M1200.07,710.8c-3.89,4.53-7,8.57-9.82,12.39C1196.5,716.76,1205.91,706.33,1200.07,710.8Z" transform="translate(-15.65)"/><path class="cls-5" d="M1202.58,737.2a11,11,0,0,1,1.16-.57C1208.08,732.36,1205.81,734.27,1202.58,737.2Z" transform="translate(-15.65)"/><path class="cls-5" d="M1202.58,737.2c-3.77,1.79-9.67,5.57-14.95,8.88a41,41,0,0,0,9.26-3.52C1198.3,741.13,1200.52,739.06,1202.58,737.2Z" transform="translate(-15.65)"/><path class="cls-5" d="M1028.71,832.59c9.9-8.53,20-16,25.37-18.76s5.84-.66-3.65,9.79c8.5-5.15,28.73-22.12,51.08-42.06s46.8-42.9,63.85-59.93c-8.69,7.39-16.69,14.25-30.86,21.48-4.93,5.21-9.82,12.3-16,19.69a109,109,0,0,1-23.64,21.64c-13.34,5.18,4.39-9.05,13.21-20-11.59,11.5-21.54,18.12-32.94,26a345.77,345.77,0,0,0-41.87,33.25l15.27-8.16C1043,820.5,1033.1,827.28,1028.71,832.59Z" transform="translate(-15.65)"/><path class="cls-5" d="M1168.34,729.17l3.54-.81c2.24-4.42,9.29-12.29,23.12-27.55a148.69,148.69,0,0,0-25.91,17.68l2.59,8.59Z" transform="translate(-15.65)"/><path class="cls-5" d="M1176.87,734.07c-22.69,17.24-34.38,22.13-56.4,43.76,4.46,2.23,20.28-12.81,31.6-18.53-5.19-.68-1.8-2.8,4-6.57s14-9.14,18.36-16.52c4.71-1.9,6.76-1.79,8.55-1.49a93.22,93.22,0,0,1,7.28-11.53l-1.24,1.28.1,0-.35.28c-2.5,2.54-4.08,4-2.75,2.39a1.28,1.28,0,0,1-.56.25c-3.07,2.5-5.81,4.6-8.46,6.61,3-5.54,5.42-5,8.46-6.61,1.08-.87,2.14-1.67,3.31-2.64l.25-.25q-8.61,1.89-17.13,3.89C1170,732.21,1172,733.29,1176.87,734.07Z" transform="translate(-15.65)"/><path class="cls-5" d="M1088.82,852.47c1.89-1.68,3.51-2.89,5.15-4.15C1090.92,850.06,1088.92,851.37,1088.82,852.47Z" transform="translate(-15.65)"/><path class="cls-5" d="M1100.81,839.83c3.46-2,12.8-8.51,11.48-5.38-6,6.31-10.9,8.19-18.32,13.87,6.59-3.77,18.47-9.37,27.57-20.27l-3.4,1.91c3-4.1,11-12.3,18.64-19.77s14.88-14.16,16.59-15.13C1133.65,811.35,1119.65,823.12,1100.81,839.83Z" transform="translate(-15.65)"/><path class="cls-5" d="M1134,792.2q-7.43,1.93-14.77,4-8.55,9-17.17,17.91l11.4-9.42C1111.16,811,1124.89,799,1134,792.2Z" transform="translate(-15.65)"/><path class="cls-5" d="M1179.19,708.17l23.27-19q-17.31,12.42-34.52,24.94Z" transform="translate(-15.65)"/><polygon class="cls-5" points="1155.19 704.07 1175 687.01 1161.7 695.78 1155.19 704.07"/><path class="cls-5" d="M678.09,504.81l-7.66-.4A34.36,34.36,0,0,0,678.09,504.81Z" transform="translate(-15.65)"/><path class="cls-5" d="M679.23,518.85l12.64-2.42C684.8,517.31,679.64,518.16,679.23,518.85Z" transform="translate(-15.65)"/><path class="cls-5" d="M1054,579.77c18-16.64,46.65-41.36,23.66-23l-22.17,18.1C1060.25,572.6,1058.31,575.3,1054,579.77Z" transform="translate(-15.65)"/><path class="cls-5" d="M856.31,580.56l-7.77,4c9.27-3.2,17.84-6.2,25.88-9.07C868.73,577.15,862.7,578.82,856.31,580.56Z" transform="translate(-15.65)"/><path class="cls-5" d="M746,623.87q7.79-5.39,15.63-10.66A107.37,107.37,0,0,0,746,623.87Z" transform="translate(-15.65)"/><path class="cls-5" d="M635.39,438.87l-29.12,2.61C607,444.62,621.23,440.89,635.39,438.87Z" transform="translate(-15.65)"/><path class="cls-5" d="M1108.84,652.49c6.7-9.2,9.07-13.55,9.1-15.53C1107.63,650,1091,668.36,1108.84,652.49Z" transform="translate(-15.65)"/><path class="cls-5" d="M976.49,447.26a106.41,106.41,0,0,0-17.27,2.42A82.85,82.85,0,0,0,976.49,447.26Z" transform="translate(-15.65)"/><path class="cls-5" d="M1113.9,632.81c-1.84,2.22-2.66,3.47-4.18,5.39,4.5-2.22,8.33-3.8,8.22-1.24C1125.63,627.26,1129.73,620.62,1113.9,632.81Z" transform="translate(-15.65)"/><path class="cls-5" d="M616.18,246.59c1.13-.62,1.65-1,3-1.68C615.63,246.45,615.48,246.67,616.18,246.59Z" transform="translate(-15.65)"/><path class="cls-5" d="M834.05,47.68c2-.24,2.92,1,4.08,2C839.33,48,838.47,47.08,834.05,47.68Z" transform="translate(-15.65)"/><path class="cls-5" d="M1157.91,671.15c2.52,0,2.5-1.95,0,0Z" transform="translate(-15.65)"/><path class="cls-5" d="M1080,753.69a137.2,137.2,0,0,0-10.71,8.92C1074.43,758.05,1077.82,755.26,1080,753.69Z" transform="translate(-15.65)"/><path class="cls-5" d="M973.55,743.67s0-.13,0-.16C969.74,747.66,970.47,746.88,973.55,743.67Z" transform="translate(-15.65)"/><path class="cls-5" d="M1150.05,681.83a49,49,0,0,0,4.8-7.34A56.49,56.49,0,0,0,1150.05,681.83Z" transform="translate(-15.65)"/><path class="cls-5" d="M1159.78,672.41c-.55,1.3-.76,2.12-1,3C1162.4,672.3,1164.48,670.13,1159.78,672.41Z" transform="translate(-15.65)"/><path class="cls-5" d="M1155.18,670.47c1,.4.6,2-.33,4a19.34,19.34,0,0,1,3.06-3.34A8.41,8.41,0,0,1,1155.18,670.47Z" transform="translate(-15.65)"/><path class="cls-5" d="M716.89,318.34c.87-.27,1.41-.49,2.6-.84C707.54,318.49,709.53,318.72,716.89,318.34Z" transform="translate(-15.65)"/><path class="cls-5" d="M791.84,725.16c.3-.09.94-.47,1.28-.6.18-.24.44-.55.66-.81Z" transform="translate(-15.65)"/><path class="cls-5" d="M770.09,731.05c31.39-17.18,28.6-13.49,23.69-7.3q33.42-24.27,67-48.27Q815.69,703.62,770.09,731.05Z" transform="translate(-15.65)"/><path class="cls-5" d="M663.83,474.39l-24.53,8.9c-42.6,2.35-28.95-4.26-63.81,6.36,44.18-7.58,47.18-3.79,50.22.1s6.16,8,50.19-.24l-18,6.49c.7-1-4.51-.13-3.79-1.13-20.52,6.95-4.4,4.94,15.43,2.3s43.36-5.91,37.87-1.06c-6.21,3.85-18.58,8.3-29.36,8.7q11.45.63,22.88,1.13c-1.35,2-16.66,4.84-15.34,2.83l8.84,7.15-2.6.51c14-1.75,35.88-3.72,45.2-4.47-12,5-9.52,1-20.3,4q11.13,0,22.25-.15a143.09,143.09,0,0,1-30.53,6.35c-8.18.67-13.29-.12-12.06-2.17-43.12,12.15-37.35,12.07-26.93,11.44,5.21-.29,11.59-.71,13.63.31s-.27,3.48-12.38,9.08l-12.17-2.13c-24.38,7.41-31.85,11.08-36.91,14.51s-7.62,6.74-22.23,13.59c7.84-2.74,26.47-10.55,46.08-17.4s40.19-12.83,51.71-12.79c-6.19,3.12-8.78,6,9.45,4.46-30.89,7.84-22.55,8.86-19.88,12l-40.91,10.44c12.85,1,33.51-4.87,52.5-7.5-2.79,5.44-34,15.12-60.26,23.67-2.15,4.74,10.08-.18,24.15-5.33s30-10.53,35-7.45c-6.92,5.16-5.92,7.65.06,8.75a80.57,80.57,0,0,0,12.43.81c5.17,0,11.22-.11,17.79-.28-6.3,4.18-12.51,6-18.54,7.3s-11.87,2.22-17.39,4.78q16.65-3.15,33.27-6.5c-.49,1.13-10.43,4-15.45,5.45,6.7-.44,16.75-3.64,26.69-6.55s19.74-5.57,25.9-5.13c22.28-6.66,6.8.81-7.48,9-7.15,4.06-14,8.28-15.9,10.77s1.32,3.23,14.25.18c-10.77,5.5-24.59,8.08-39.81,14,17.78-1.69,24.28-2.22,32.13-3.4s17.14-3.07,40.09-8.42q-11.88,7.6-23.66,15.51c13.92-7.91,30.15-13.92,46.59-19.09s33.11-9.49,48.07-13.56c13.68-7,25.72-13,31.39-16,7.73-1.06,15.33-2.16,23-3.47-6.11,3.29-19.67,8.5-36.32,14.43,3.38-1,6.71-2,9.77-2.94-13.51,8-36.3,16.73-58.75,24.28,7.32-4,15.21-8.17,23.1-12.27-24.26,8.41-51.17,17.57-73.92,27.26a43.11,43.11,0,0,1,11.46-2.06,163.17,163.17,0,0,0-16.29,6.12c-4,1.94,4.92-.87,15.3-3.9q-21.39,9.85-42.67,19.87l17.4-6.87q-11.48,10.5-22.68,21.56c11.61-3,24.42-6.83,37.42-10.83l38.67-12.09c24.93-7.74,46.6-14.23,57.31-14.5-15.87,6.83-28.52,13-41.71,20s-27,14.48-45.19,23.72c18.56-11.27,13.54-11,4.39-9.44s-22.42,4.59-19.83-.1c-2.68,4.84-20.56,12.65-27.1,14.76q20.39-3.15,40.4-7.13c-30,14.81-21.33,13.42-32.24,22.49,14.42-8.11,24.33-12.91,31.35-15.73S791.76,654,794.77,654c6,0,7.31,3.34,17.21.3-9.66,5.47-19.57,10.73-26.82,13.66s-11.87,3.52-10.85-.19c-10.23,7.21-10.79,9.05-6.48,8s13.51-4.94,22.87-9,18.89-8.34,23.94-10,5.58-.71-2.89,5.72c-1.12-.8,1.55-3.09-8.52,2,9.29-3.51,11.44-1.93,9.09,1.69s-9.16,9.26-17.94,13.42l-1.06-.9c-1.17,5.71,2.17,11.68,11.86,12.14,4.83.26,11.19-.8,19.29-3.82s18-8,29.85-15.52c-6,4.08-57.13,36.32-67,42q83.42-45.16,164-94.54C931.33,632.33,898.2,656.1,867,678s-60.59,41.88-73.88,46.52c-2.25,2.81-4.65,5.9-4.42,7.55s3.11,1.77,11.31-1.37c2.4-2.55,16.15-13.28,29.92-23.46s27.53-19.84,29.82-20.42c-20.6,17.34-25.91,22.26-30.38,26.66s-8,8.33-24.68,24.39c3.57-3.9,21-16.43,37.52-27.56s32-20.89,31.86-19.06c-9.39,6.32-60,44.42-67,48.13q32.36-18.7,64.18-38.11c-11.78,6.58-50.56,37.42-66.18,51.57,11.09-9.46,3.18,6.51,10.33,3.65L827,743.38c-1.71,6.92,20.25-7.37,42.7-22.5s45.45-31,46.29-26.92c-12.48,9-75.12,57.19-79.61,66.48l88.35-64.69c36.06-26.34,71.29-52.06,84.34-59.31l-15.89,14.85q10.92-6.24,21.74-12.61c-22.6,17.56-58.17,44.25-93.29,69.45-17.55,12.6-35,24.9-50.51,35.53s-29.18,19.7-39.13,26c-11.22,13.46-19.22,17-14.51,19.62-14.51,14.43-25.57,17.55-27.48,17.1l-2.36,17.7c33.64-29,39.73-21.94,67.46-46.4Q833.72,788.12,812,798c16.83-14.39,42.15-33.2,63-47.27s37.08-23.36,36.46-18.14c-6.08,6.46-21.23,19.13-36.29,31.36s-30,24-35.57,28.92c12.27-9.17,26.86-13.56,19.17-5.91l-20.05,13.09c-4.86,7.14,7.42-1.16,17.28-7.35s17.32-10.26,3.17,5.69c-.48,1.59-10.27,12.07-17.44,20s-11.74,13.37-1.86,4.72c35.72-36,152.46-140.43,181.84-164.61-1.1,1.33-8.85,10.82-18.43,22.31s-21,25-29.62,34c-13.82,14.31-32,29.52-49.68,44.15s-35,28.72-46.82,41.05a319,319,0,0,1,25.14-19.74c-6.47,8.27-28.28,24.71-21.61,23.9,33.66-29.86,2.48,8.36,29.3-24.31,12-5.94-4.15,9.15.24,11,10.21-10.37,29-26.43,46.77-40.71s34.31-26.78,40.19-29.87c-8.52,7.64-18.88,18.36-23.6,23.28,2,8-10.24,24.9-5.87,30.1-7.51,7.92-14.85,19.35-29.9,31.61,6.46-4.74,18.17-14.54,20.41-13.77-25.51,29.66-7.62.75-39.5,35.07,19.22-17.72,30-20.8,43.87-29.87,28.74-28.37.94-10.27-13-1.28,40.54-38.19,86.49-74.47,110.06-87,13.91-5.41-24.51,26.48-18.08,21.74.19,14.41,77-60.11,53.93-26-23.46,26.86-51.44,48.37-69.57,66.44-12.93,5.84,11.6-20.56,8.42-21.86l-9.6,14.29c-9.6,7-18.21,10.93-11.86,2.67-10.61,12-8.67,16.26-6.09,20.82s5.84,9.37-2.25,22.31c9.69-7,20.43-13.55,30.12-24.1l-5.4,1.47c19.37-21.21,32.41-23.24,40-34.75,8.59-5.52,19.39-12.89,27-17s12-5,7.82,2.39l-29.31,27.94c8.69-8,15.59-18.69,5.51-11.42,7.34-5.27-1.45,5.41-7,13.11s-7.93,12.44,12.52-4.44l18.38-21.46c8.78-5.47,21.92-14.54,32.14-20.63s17.47-9.31,14.32-3.26c14.2-14.1,13.15-13.56,12.64-13.69s-.48-.93,15.76-17.84c-20.67,20.52-22.31,17.77-24.06,15.44s-3.57-4.1-24.67,18.13c19-19.47,22.2-24.47,24.61-28.89s4-8.26,19.47-25.61c-9.73,9.13-17.72,18.43-15.59,11-3,2.51-6.92,5.56-9.24,7.33.18-.33.32-.51.55-.87-.36.45-.64.78-1,1.23-1.59,1.23-1.9,1.5-.35.43a175.67,175.67,0,0,1-13.59,15.2c-23.89,19.31-27.3,14.2-40.31,23.48,3.11-6,11.86-9.72,21.46-20.31l-19.46,13.89c21.51-20.42,31.93-38,48.29-45.89l-2.33-4.42c10.23-13.42,12.32-20.85,1.61-14,3.16-6-27.72,18.42-9.5,3.91l-18.4,7.26,5.35-5.13c-2.14-7.71-45.72,23.07-12.09-19.25-3.51,1.72-7.34,3.72-9.86,4.21s-3.66-.47-1.87-4.71l18.23-18.06c-4.25,2-1-3.92.73-8.18s2.1-6.8-8.1,1.84c24.27-24.56,24.85-29.48,20-29.79s-14.83,4.15-11.84-1.66l-24.94,22.34c-.41-1.84-2.82-1.69-6.73-.35s-9.35,3.88-15.69,6.87l-22,19.82c-5.12,3.38-7.09,3.76-7.23,2.42s1.59-4.38,3.77-7.91c4.36-7.06,10.63-15.95,7.77-16.94,8.81-7.1,7.43-4.18,2.88,1a144.11,144.11,0,0,0,11.48-13c2-2.75,2.44-4.08,1.7-4.45-1.49-.73-7.55,2.39-14.08,5.84-13.06,6.94-27.92,15.08-10.77-2.4-9.19,5.76-7,2.67-1.77-2.71.13,0,.63-.21,1.42-.72.19-.33.11-.52-.07-.64,3.6-3.65,7.84-7.81,11.18-11.25-5.31,4.89-9.6,9-11.44,11.08-1.15-.41-4.88.73-11.64,4.14l24.57-20.17a8.64,8.64,0,0,0-.91.3c8.39-8.3-12.55,8.38-30.87,23.77-4.58,2.62-10,5.93-16.38,10.2,19.86-16.26,15.86-14.35,12.11-12.82s-7.15,2.74,14.16-14.44c-21.82,15.35-20.41,6.31-66.28,38.61,5.88-4.35,8.42-6.78,9.29-6.34,4.12-5.26,8.34-10.35-5.49-2.49l32.53-24q-23.21,14.25-46.71,28.09c18.85-16.09,30.32-24.68,57.05-40.65-21,11.54-25.45,13.07-29.67,14.77s-8.36,3.44-29.55,14.42l22-14.13c-.86-.4-9,3.62-14.69,6.1s-9.08,3.46-.23-2.74c10-7.44,14.78-12.26,16.89-15.82a9,9,0,0,0,1-8.26,15.63,15.63,0,0,1-.79-3.79,10.33,10.33,0,0,1,1-4.76c1.7-3.67,5.81-8.5,15.28-15.51-16.94,9.12-23.57,12.53-24.87,12.85s2.78-2.39,7.32-5.36c9.08-6,20.13-12.84-6.69.18,16.07-8.5,24.88-13.87,39.6-19.8-4.41,1.17-5.17.63-4.52-.48s2.68-2.77,3.87-4c2.37-2.51,1.18-3-22.3,6,16.5-7.88,24.66-10.21,34.34-15-3.69,1.38-14.89,5.42-5.13.66s14.18-5.72,21.61-8.51c-2-.85-16,4.24-35.49,12s-44.59,18.24-68.86,28.41c21.85-12,18.35-11.56-14.34-.33,15.58-7.4,31.82-15.35,38.61-15,.86-1.26,5.8-5.92,5.64-8.28s-5.5-2.55-25.29,4.71c9.85-4.26,2.13-3.39-2.6-2.18,1-4.63,4.52-6.17-.56-8.53L929.45,526c-24.33,7.53-27.33,7.56-25.08,5.66s9.81-5.81,6.38-6.46l5-1.52c8.14-4.68,11.13-6.8,11.59-7.75s-1.6-.72-3.51-.54-3.67.31-2.59-.83,5-3.53,14.48-8.26l-30.18,9.5c-32.72,9.5-23.62,4.75-9.55-1.69s33.15-14.49,20-13.1l-17,6.42c-11.56,1.93,10.24-6,36-14.66s55.45-18.11,59.3-20.19c5.62-1.94,9.37-1.71,13.76-2.22,18.76-7.71,8.7-5.2-7.37-1.07s-38.1,10.08-43.32,9.12c21.49-6.26,55.35-13.14,58.72-16.74,8.63-2.86-9.47-.21-24.66,1s-27.48,1-7-5.71c-16.61,4.68-33.16,9.51-46.28,10.28-3.37-1,12-6.71,21.57-11s13.31-7.25-13.58-3.13c4.51-1.39,8.9-2.47,13.09-3.37-14.24.41-24.55-3.41-53.74.6,53.4-11.87,39.61-13.18,24.77-14.33s-30.65-2.06,19-11l-6.79-7.23,10.19-1.56c1.41-1.59,1-2.63-.89-3.28s-5.08-.93-9.25-.93C934.12,412,922,413,910,414.09c6.55-2.41,16-3,21.21-3.83,18.72-11.29,14.39-11.16-36.3-10L927,394.33c-19.08,1.15,48.78-19.71,9.83-21.9A143.29,143.29,0,0,1,951.48,371c-9.83-.79-9.36-3.4-5-6.7S959.19,357,965,353.62c11.68-6.8,13.51-11.3-45.62-3.78l-30-1.64c-7.86,9.49-51.24,7-70.26,13.37-7.39-2,34.2-13.76,40.85-10.88l-5.78,1.54c61.54-8.4,20.14-13.45,61.87-20.13-1.44-4-.57-8.32,1.55-12.86A92.88,92.88,0,0,1,926.52,305c7-9.62,14.43-19.74,14.17-28.14l-47,11.22c.55-2,1.12-4,1.63-6,10.72-3.68,36.6-9.53,35.49-5,13.19-3.76,7.21-4.39-3.34-3.75s-25.68,2.53-30.84,3.55c8.77-5.87,22.69-8.06,34.53-9s21.58-.62,21.88-2l-4.25-2.67-5.36,1.92c-19.88,1.3-40.38,5.44-39,.14,8.8-5.11,28.76-7.93,30.31-9.57,3.34-.73,4.81-1.5.91-2.23l2.32-8.35-36.49,11.43c-19,1,.42-7.09-40.91,5.86,16-4.9,25-9.37,29.89-13.44s5.53-7.78,4.84-11c-1.43-6.58-8.3-11.37,1.18-15.62-28.08,2.75-28.78-1.52-27.1-7.89-7.23,3.6-48.14,16.3-44.38,10.51,42.64-11.8,51.18-16.64,56.48-21.46s7.42-9.41,37.06-21.18c-19.52,8.25-23.12,5.48-28.71,3.78-2.82-.86-6.19-1.49-12.25-.33s-14.82,4.12-28.56,10.2c2.73-3.06,10.53-5.8,20-8.95s20.62-6.72,29.91-11.68c-9,.28-12.59-1.31-13.24-4.09s1.69-6.73,4.45-11.13c5.61-8.74,13.64-19.25,5.66-23.45-5.4,2.13-12,5.42-19.34,8.66a144.77,144.77,0,0,1-24,8.49q25.46-14.25,50.58-29.24c-3.18-.16-18.78,6-29.21,9.58s-15.65,4.78,1.75-5.69c-8.62,4.65-21.68,11.54-25.74,11.51a54.82,54.82,0,0,0,6.1-8,27.2,27.2,0,0,0,2.95-6.84,14.83,14.83,0,0,0-1-10.7,20.09,20.09,0,0,0-2.88-4.22,32.93,32.93,0,0,0-4-3.72c-2.87-2.37-6-4.55-8.85-6.89-5.52-4.7-10.11-9.89-8.49-19.07A35.57,35.57,0,0,1,836,72.73a89,89,0,0,1,5-9.62C845.19,56,851.4,47.32,860.1,36.54c-8.05,8.14-13,11.88-16.15,13.4s-4.61.78-5.82-.24c-3.3,4.69-23.54,16.38-36.21,25.72q7.38-8.53,14.58-17.31c2.4-2.93,4.79-5.88,7.14-8.84s4.64-5.93,6.93-8.93c-18.22,12.11-20.7,10.11-23,8s-4.29-4.29-20.93,8.3c2.67-.64,5.37-1.26,8.07-1.85-20.83,13.34-41.19,31.76-63.16,50.95-11,9.62-22.3,19.47-34.1,29.24s-24,19.46-36.7,28.93c11.61-7.89,13.66-8.21,11.14-5.12s-9.67,9.63-16.29,15.66S643,186,642.82,187.33s5.66-1.43,23-11.61a118.85,118.85,0,0,1-14,9.39c-4.57,2.73-9.33,5.58-15.27,9.87,11.54-7.14,18.72-11.15,21.93-12.28,1.6-.56,2.23-.42,1.88.44s-1.68,2.42-3.9,4.61l-5.8,3.36c4.63,1.29,1.75,6.2-3.88,12.4s-14.21,14.12-20.37,21.28l27.35-15.13c-2.86,3.48-11.38,8.3-18,12.54,21.49-10,21.58-11.38,22.07-13.06s1.55-3.74,25.08-15.18c-13.72,8-20.28,12.74-23.38,15.8s-2.84,4.7-2.76,6.37c.13,3.32-.67,7.11-33.19,22.85.32,1.17,8.47-2.72,16.62-6.67s16.28-7.92,16.64-6.53l-17.54,8.72,23.26-9.69c-3,3.46-25.09,14.05-40.26,20.71,1.64-1.15-4.69.86-6.14,1.07-10.14,5.58-7.83,6-3.73,5.57s9.95-1.65,6.62.1q5.1-3.34,10.17-6.77a17.1,17.1,0,0,1,5.69.49,7.14,7.14,0,0,1,3.06,1.9c1.44,1.55,1.94,3.53,3.08,5.26s2.83,3.36,6.79,4.13,10.14.78,20.22-.52l13.79-5.3c14-1.39,10.54,1.31,5.35,4.4s-12.13,6.8-5,8.27l-3.44.79c14.45-3,22.19-3.25,21.13-.79-8.53,1.53-16.34,4.77-24.41,7.94s-16.4,6.27-25.87,7.87c15-.88,20.75-1.55,29.5-3.44s20.51-4.95,47.62-9.78l-23.28,7.56c21.82-4.19,33.17-7.08,40.29-4.75-10.57,1.05-19.42,4.08-29.12,7.2s-20.23,6.38-34.08,8.27c-12.47,5.27-15.29,7.63-13.64,8.71s7.76.84,13.11.71,9.91-.15,8.44,1.21-9,4.14-27.87,9.51c33.36-6.06,42.14-9.84,44.37-12.42s-2.11-3.67,5.19-4.41a154,154,0,0,1,32.14-6.57c9.12-.81,14.82-.11,11.82,2-.42,1.53-21.25,7.63-41.66,14S672,310.59,673.33,313.45c.18-.67-4.84.39-4.7-.26-8.16,3-2.22,2.82,2.43,3.08s8,.9-5.43,5.22c20.2-3.43,19.83-2.35,20.8-1.72s3.29.82,28.93-4.2q-6.55-1.79-13.08-3.49c7,.25,25.68-1.95,39.1-2.65s21.68.09,7.69,5.95c-10.43,1.58-24.35,2.55-32.18,3-14.75,4.64,10.65,1.21-4.53,6-25.71,4.8-28.83,3.53-30.53,1.64s-2-4.46-21.85-2.08c-10.64,3.08-1,2.73,4.26,2.9s6.27.78-21.65,5.56c35.53-6,33.64-3.91,29.66-1.26s-10,5.84,17.41,2.86l-30.82,5.6c5-.26,19.78-1.6,19.23-.18l-40.33,5.31c17.34-1.55,10.22,1.54,1.15,4.88s-20.14,7.07-10.57,7c-1.09-3.38,8.12-5.48,20.35-7.62s27.47-4.26,38.44-7.87c21.42.74,1.51,5.76-21.72,11.33s-49.76,11.78-41.51,15.26c-4.57-.53,17.67-8.1,32.33-8.55a124.53,124.53,0,0,1-13,5.34,207.47,207.47,0,0,1-20.47,6.08c3.75,2.73,11.66,1.16,21-1.18s20.26-5.44,30-5.6c-37.25,8.62,15.87.72,28.43,1.78l-31.42,5.2c-9.43,5.49,7,3.33,22.94,1.22s31.31-4.27,19.71,1.37l-44.09,3.94,11.87,2-35.88,5c27.19-.17,20.52,2.24,11.13,7.84,22-4.43,57.16-8.54,58.73-5-18.3,5.46-30.12,3.3-24.81,7.81-19.86,1.92-44.76,4.52-16.15-2.31-10.29,1.39-19.92,1.95-30.08,3.31-21.06,6.08-3.84,7.54-3.26,9.38,1.07-.91,2.62-2,7-3.19l44.77.71c-11.63,3-21.27,3.58-30.7,4.1,3.64,1,18.26-.22,21.33,1.68-25.66,3.43-52,7.65-64.58,6.34,9.83.9,19.69,2,29.53,2.93-11,2.24-29.93,8.62-39.5,9.14-7.19,3.25,5.61,3.84,17.83,4.66s23.91,2.06,14.45,6.46a56.61,56.61,0,0,1,13.69-.08c-2.46,3.11-11.34,7.11-15.09,10.43s-2.32,6.11,15.71,6.39l-45.13,11.44c5.63,1.7,19.82-2,35-5.46s31.19-6.54,40.51-3.87c7.77,1.66-1.85,3.95-15,6.31s-29.8,4.81-36,7c11.8-.46,29.66-1.44,40-.84s13.26,2.81-4.81,9C661,478.2,667.53,475.51,663.83,474.39Zm33.93,62c-6.83.26-27.49,2.43-9.44-2.91C724.16,526.49,707.37,531.58,697.76,536.37Zm106,76.78c-10,3.34-5.9-.21,4.49-6.5C811.12,606.74,810.57,608.45,803.73,613.15Zm322.84,62.35c-.41.31-.72.55-1.22,1C1132.6,666,1129.67,670.08,1126.57,675.5Zm-6.35,13.44a74,74,0,0,0,9.92-8.87c-6.15,5.22-7.39,4.7-6.7,2.13C1117.61,688.18,1113.87,692.63,1120.22,688.94ZM923.08,257.54l-7.88,2.94C905.67,259.89,913.92,258.82,923.08,257.54Z" transform="translate(-15.65)"/><path class="cls-5" d="M758.83,618.94c4.83-2.42,10.28-4.76,15.79-7.12A59.19,59.19,0,0,0,758.83,618.94Z" transform="translate(-15.65)"/><path class="cls-5" d="M640.77,438.38c.24-.1.14-.15.32-.24-1.9.2-3.81.45-5.7.73Z" transform="translate(-15.65)"/><path class="cls-5" d="M866.47,812.8a98,98,0,0,1,10.65-12.7C871.3,805.28,866.79,810.09,866.47,812.8Z" transform="translate(-15.65)"/><path class="cls-5" d="M1180.63,674.69l-8.7,2.76c2.41.29-2.31,5.45-5.45,9.52C1172,681.91,1179.45,674.16,1180.63,674.69Z" transform="translate(-15.65)"/><path class="cls-5" d="M1053.52,828.52c3.29-2.16,1,.51,4.32-1.69l11.19-9.68C1066.91,816.15,1056.92,822.79,1053.52,828.52Z" transform="translate(-15.65)"/><path class="cls-5" d="M1104.34,748.09c-19.72,18.12-11.5,13.68-6.12,12.25-.18,0-.44,0-.3-.33C1126.4,735.63,1115.3,741.83,1104.34,748.09Z" transform="translate(-15.65)"/><path class="cls-5" d="M1099.28,760.17c1.45-.26,2.5-.14,2,1.28C1112.75,751.71,1103,758.67,1099.28,760.17Z" transform="translate(-15.65)"/><path class="cls-5" d="M1138,682c-4.25,5.57,25.63-22.73,18.09-14.8,13-11.09,4-5.58-5.95,1.82S1129.23,685.7,1138,682Z" transform="translate(-15.65)"/><polygon class="cls-5" points="1024.33 808.49 1048.38 785.78 1027.66 802.59 1024.33 808.49"/><path class="cls-5" d="M1045.4,778.36l-4.18,9a44.53,44.53,0,0,1,9-6.86C1049.45,778,1052.55,771.65,1045.4,778.36Z" transform="translate(-15.65)"/><path class="cls-5" d="M1050.22,780.48c.35,1.34,1.66,1.72,6.12-1.42C1055.63,778.8,1053.86,778.48,1050.22,780.48Z" transform="translate(-15.65)"/><polygon class="cls-5" points="1013.55 811.33 1017.92 805.89 1017.94 802.31 1013.55 811.33"/><path class="cls-5" d="M1022.35,744.38l-9.7,3.53c-8.53,7.48-12.81,13.05-8.49,11.06C1010.58,754.26,1014.81,752.35,1022.35,744.38Z" transform="translate(-15.65)"/><path class="cls-5" d="M964.89,815.45c4.25-5.5,9.58-10.61,17.09-18.53l-29.94,28Z" transform="translate(-15.65)"/><path class="cls-5" d="M949.82,813.42c-8.55,7.51-27.81,18.09-22.38,20.09C935.93,826.07,945.6,822.56,949.82,813.42Z" transform="translate(-15.65)"/><polygon class="cls-5" points="929.7 732.47 930.79 732.9 980.61 687.77 929.7 732.47"/><path class="cls-5" d="M783.26,789.83c-8.76,14.92,33.38-24.61,21.06-7.82,13.24-8.86,10.07-13.68,21.69-21.12C810.72,768.55,816.93,761.12,783.26,789.83Z" transform="translate(-15.65)"/><path class="cls-5" d="M826,760.89c2.42-1.21,5.31-2.75,9.09-5A77.3,77.3,0,0,0,826,760.89Z" transform="translate(-15.65)"/><path class="cls-5" d="M852.84,12.53q4-6.21,8-12.53Q853,8.28,845,16.45Z" transform="translate(-15.65)"/><path class="cls-5" d="M808.32,36.53,840.94,8.72Q825,19.82,809.23,31.11C811.3,30.66,815.38,29.86,808.32,36.53Z" transform="translate(-15.65)"/><path class="cls-5" d="M616.8,568.16l10.07-2.28c10.63-3.41,11.21-4.54,12.42-6.83Z" transform="translate(-15.65)"/><polygon class="cls-5" points="620.4 508.61 619.73 509.65 657.37 500.39 620.4 508.61"/><path class="cls-5" d="M579.85,476.64c-1.31,1.89,7.56,2.41,6.24,4.35-3.77-1.22,6.54-4.5,11.86-6.36S603.62,472.32,579.85,476.64Z" transform="translate(-15.65)"/></g></g></g></g></g></svg>