<svg xmlns="http://www.w3.org/2000/svg" viewBox="0 0 29.42 31.6"><defs><style>.cls-1{fill:#282828;}.cls-2{fill:#f6958b;}.cls-3{fill:#f9b3a9;}.cls-4{fill:#ffe5b0;}.cls-5{fill:#fff3d7;}.cls-6{fill:#dfc391;}.cls-7{fill:#444545;}.cls-8{fill:#3d3d3d;}.cls-9{fill:#fdbf43;}.cls-10{fill:#cf4e4a;}.cls-11{fill:#ef422b;}.cls-12{fill:#383736;}.cls-13,.cls-15{fill:none;}.cls-13{stroke:#fdbf43;stroke-miterlimit:10;stroke-width:0.47px;}.cls-14{fill:#4c4c4d;}.cls-16{fill:#71c9c0;}.cls-17{fill:#4d4d4e;}.cls-18{fill:#fbaa1b;}.cls-19{fill:#4b1a18;}.cls-20{fill:#4e2724;}.cls-21{fill:#4f4f50;}.cls-22{fill:#ffcb64;}.cls-23{fill:#f9a659;}.cls-24{fill:#47bfb2;}</style></defs><title>child</title><g id="Layer_2" data-name="Layer 2"><g id="Layer_1-2" data-name="Layer 1"><path class="cls-1" d="M11.13,2.57H10.06A2.21,2.21,0,0,0,7.84,4.79V6.63a1,1,0,0,0,0,.25c0,.25,0,.44,0,.59,0,.48,0,.54,0,.54a2.09,2.09,0,0,0,.2.91.91.91,0,0,0,.11.22,2.21,2.21,0,0,0,1.91,1.1h1.07A2.23,2.23,0,0,0,13.35,8V4.79A2.22,2.22,0,0,0,11.13,2.57ZM13.1,8a1.09,1.09,0,0,1,0,.18.34.34,0,0,1,0,.1,1.69,1.69,0,0,1-.14.5.8.8,0,0,1-.08.16l-.1.17-.11.15h0l-.12.13a2.17,2.17,0,0,1-.29.24l-.16.1-.19.09-.13.05a2,2,0,0,1-.26.06,1.42,1.42,0,0,1-.36,0H10.06A2,2,0,0,1,8.37,9a2.39,2.39,0,0,1-.12-.22A2,2,0,0,1,8.08,8V6.54h2.1V5.62h.91v.92h2Zm0-1.72H11.34V5.38H9.94v.91H8.08V4.79a2,2,0,0,1,2-2h1.07a1.42,1.42,0,0,1,.36,0A2,2,0,0,1,13.1,4.79Z"/><path class="cls-2" d="M13.1,4.79v1.5H11.5c0-1.74,0-3.44,0-3.44A2,2,0,0,1,13.1,4.79Z"/><path class="cls-3" d="M11.5,6.29h-.16V5.38H9.94v.91H8.08V4.79a2,2,0,0,1,2-2h1.07a1.42,1.42,0,0,1,.36,0S11.5,4.55,11.5,6.29Z"/><path class="cls-4" d="M13.1,6.54V8a1.09,1.09,0,0,1,0,.18.34.34,0,0,1,0,.1,1.69,1.69,0,0,1-.14.5.8.8,0,0,1-.08.16l-.1.17-.11.15h0l-.12.13a2.17,2.17,0,0,1-.29.24l-.16.1-.19.09-.13.05a2,2,0,0,1-.26.06s0-1.68,0-3.41Z"/><path class="cls-5" d="M11.5,6.54c0,1.73,0,3.41,0,3.41a1.42,1.42,0,0,1-.36,0H10.06A2,2,0,0,1,8.37,9a2.39,2.39,0,0,1-.12-.22A2,2,0,0,1,8.08,8V6.54h2.1V5.62h.91v.92Z"/><path class="cls-6" d="M8,8.92a1.35,1.35,0,0,1-.6.13A1.2,1.2,0,0,1,6.16,7.94,1.21,1.21,0,0,1,7.44,6.82a1.34,1.34,0,0,1,.4.06c0,.25,0,.44,0,.59,0,.48,0,.54,0,.54A2.09,2.09,0,0,0,8,8.92Z"/><path class="cls-7" d="M8.15,9.14a1.68,1.68,0,0,1-.71.16A1.45,1.45,0,0,1,5.92,7.94,1.45,1.45,0,0,1,7.44,6.58a1.33,1.33,0,0,1,.4,0,1,1,0,0,0,0,.25,1.34,1.34,0,0,0-.4-.06A1.21,1.21,0,0,0,6.16,7.94,1.2,1.2,0,0,0,7.44,9.05,1.35,1.35,0,0,0,8,8.92.91.91,0,0,0,8.15,9.14Z"/><path class="cls-8" d="M7.61,11.83a5.36,5.36,0,0,1-3.28-1.09A5.79,5.79,0,0,1,2.28,6l.48,0a5.37,5.37,0,0,0,1.86,4.38,4.89,4.89,0,0,0,3.21,1l0,.48Z"/><path class="cls-9" d="M2.51.57A.86.86,0,0,0,2.38.43.24.24,0,0,0,2.3.52L2.15.7s.05.06.08.08L2.37,1l.2-.25s0,0,0,0Z"/><path class="cls-9" d="M4.46,2.26,4,2.8l-.29.36L3.05,4a1.52,1.52,0,0,1-.22.22l-.19.13a.74.74,0,0,1-.82-.08,1.14,1.14,0,0,1-.15-.16A.28.28,0,0,1,1.58,4L.94,3.13l-.29-.4L.27,2.2a1.36,1.36,0,0,1-.25-1A1.36,1.36,0,0,1,.58.26a1.34,1.34,0,0,1,1-.24,1.32,1.32,0,0,1,.77.41A.24.24,0,0,0,2.3.52L2.15.7a.93.93,0,0,0-.6-.33l-.17,0a1,1,0,0,0-.6.2,1,1,0,0,0-.41.68A1,1,0,0,0,.55,2l.27.38.23.31.45.63.18.24.18.26A.8.8,0,0,0,2.09,4h0a.57.57,0,0,0,.13.08H2.3l.1,0L2.54,4a.69.69,0,0,0,.13-.11.43.43,0,0,0,.11-.12l.48-.6.36-.44.24-.3L4.19,2A1,1,0,0,0,4,.58,1,1,0,0,0,3.38.35H3.26a1,1,0,0,0-.65.35L2.51.57A.57.57,0,0,0,2.38.43,1.33,1.33,0,0,1,3.22,0a1.41,1.41,0,0,1,1,.29A1.4,1.4,0,0,1,4.46,2.26Z"/><path class="cls-10" d="M4.19,2l-.33.41-.24.3-.36.44V.36h.12A1,1,0,0,1,4,.58,1,1,0,0,1,4.19,2Z"/><path class="cls-11" d="M3.26.36V3.18l-.48.6a.43.43,0,0,1-.11.12A.69.69,0,0,1,2.54,4l-.14.07-.1,0H2.22A.26.26,0,0,1,2.09,4h0l0,0a1,1,0,0,1-.2-.22,2,2,0,0,1-.17-.23L1.5,3.31l-.45-.63L.82,2.37.55,2a1,1,0,0,1-.18-.76A1,1,0,0,1,.78.55a1,1,0,0,1,.6-.2l.17,0a.93.93,0,0,1,.6.33.31.31,0,0,1,.07.09l.15.2.2-.25s0,0,0,0A1,1,0,0,1,3.26.36Z"/><path class="cls-9" d="M2.51.57A.86.86,0,0,0,2.38.43.24.24,0,0,0,2.3.52L2.15.7s.05.06.08.08L2.37,1l.2-.25s0,0,0,0Z"/><polygon class="cls-12" points="8.73 22.54 8.73 30.39 7.63 30.39 7.63 31.07 6.9 31.07 6.9 31.6 6.66 31.6 6.66 30.83 7.38 30.83 7.38 30.15 8.49 30.15 8.49 22.54 8.73 22.54"/><polygon class="cls-12" points="14.35 30.83 14.35 31.6 14.11 31.6 14.11 31.07 13.38 31.07 13.38 30.39 12.27 30.39 12.27 22.54 12.52 22.54 12.52 30.15 13.63 30.15 13.63 30.83 14.35 30.83"/><line class="cls-13" x1="13.31" y1="18" x2="13.1" y2="18"/><line class="cls-13" x1="7.8" y1="18" x2="7.69" y2="18"/><path class="cls-14" d="M22.61,11.83h-.24l0-.48a4.93,4.93,0,0,0,3.22-1A5.4,5.4,0,0,0,27.47,6l.47,0a5.77,5.77,0,0,1-2,4.79A5.37,5.37,0,0,1,22.61,11.83Z"/><polygon class="cls-15" points="17.12 18 17.12 22.3 18.47 22.3 18.47 20.25 20.67 20.25 20.67 22.3 22.42 22.3 22.42 18 17.12 18"/><polygon class="cls-12" points="21.49 22.54 21.49 30.39 22.6 30.39 22.6 31.07 23.32 31.07 23.32 31.6 23.57 31.6 23.57 30.83 22.84 30.83 22.84 30.15 21.74 30.15 21.74 22.54 21.49 22.54"/><polygon class="cls-12" points="15.87 30.83 15.87 31.6 16.12 31.6 16.12 31.07 16.84 31.07 16.84 30.39 17.95 30.39 17.95 22.54 17.7 22.54 17.7 30.15 16.6 30.15 16.6 30.83 15.87 30.83"/><line class="cls-13" x1="17.12" y1="18" x2="16.91" y2="18"/><line class="cls-13" x1="22.53" y1="18" x2="22.42" y2="18"/><path class="cls-16" d="M29.42,28.22a2.4,2.4,0,0,1-1.5,2.21,2.34,2.34,0,0,1-.88.17,2.38,2.38,0,1,1,2.38-2.38Z"/><path class="cls-17" d="M22.26,4.27a3.07,3.07,0,0,0-1.87-1.5,2.91,2.91,0,0,0-.85-.12,3.09,3.09,0,0,0,0,6.17,2.61,2.61,0,0,0,.85-.13,3.07,3.07,0,0,0,1.87-4.42Zm.07,2s0,0,0,0l-.06.24a4.17,4.17,0,0,1-.24.58l-.11.16,0,.07a2.09,2.09,0,0,1-.14.17,1.51,1.51,0,0,1-.17.2l0,0a2.6,2.6,0,0,1-.4.33l-.23.14-.19.09a1.52,1.52,0,0,1-.32.12.11.11,0,0,1-.06,0l-.21,0h0l-.21,0h-.36a2.84,2.84,0,0,1-2.83-2.84,2.74,2.74,0,0,1,.35-1.35.8.8,0,0,1,.13-.22,2.14,2.14,0,0,1,.19-.26,2.85,2.85,0,0,1,2.16-1,2.61,2.61,0,0,1,.85.13A2.8,2.8,0,0,1,22,4.3a.19.19,0,0,1,.05.1l.06.11a2.74,2.74,0,0,1,.29,1.22c0,.13,0,.24,0,.36Z"/><path class="cls-18" d="M22.39,5.73c0,.13,0,.24,0,.36l0,.19s0,0,0,0l-.06.24a4.17,4.17,0,0,1-.24.58l-.11.16,0,.07a2.09,2.09,0,0,1-.14.17l-.17.2,0,0a2.6,2.6,0,0,1-.4.33l-.23.14-.19.09a1.52,1.52,0,0,1-.32.12V5.24l.08,0A4,4,0,0,0,21.09,5l.33-.14h0l.31-.16c.11-.07.24-.14.35-.22A2.74,2.74,0,0,1,22.39,5.73Z"/><path class="cls-9" d="M20.39,5.24v3.2a.11.11,0,0,1-.06,0l-.21,0h0l-.21,0h-.36a2.84,2.84,0,0,1-2.83-2.84,2.74,2.74,0,0,1,.35-1.35,4,4,0,0,0,2.54.94A4.41,4.41,0,0,0,20.39,5.24Z"/><path class="cls-9" d="M20.47,5.22A5.45,5.45,0,0,0,21.09,5,4,4,0,0,1,20.47,5.22Z"/><path class="cls-19" d="M22,4.3a4.77,4.77,0,0,1-1.6.68V3A2.8,2.8,0,0,1,22,4.3Z"/><path class="cls-20" d="M20.39,3V5a3.58,3.58,0,0,1-3.2-.82,2.14,2.14,0,0,1,.19-.26,2.85,2.85,0,0,1,2.16-1A2.61,2.61,0,0,1,20.39,3Z"/><path class="cls-14" d="M22.1,4.51c-.11.08-.24.15-.35.22l-.31.16h0L21.09,5a4,4,0,0,1-.62.19l-.08,0a4.41,4.41,0,0,1-.79.08,4,4,0,0,1-2.54-.94.8.8,0,0,1,.13-.22,3.58,3.58,0,0,0,3.2.82A4.77,4.77,0,0,0,22,4.3a.19.19,0,0,1,.05.1Z"/><path class="cls-7" d="M17,10.24V22.1h2V20H20.6V22.1h2V10.24Zm5.32,11.62H20.84V19.73H18.7v2.13H17.23V17.58h5.08Zm0-4.53H17.23V10.48h5.08Z"/><polygon class="cls-21" points="22.31 17.58 22.31 21.86 20.84 21.86 20.84 19.73 18.7 19.73 18.7 21.86 17.23 21.86 17.23 17.58 22.31 17.58"/><rect class="cls-22" x="17.23" y="10.48" width="5.08" height="6.85"/><path class="cls-12" d="M7.7,10.24V22.1h2V20h1.65V22.1h2V10.24ZM13,21.86H11.56V19.73H9.42v2.13H8V17.58H13Zm0-4.53H8V10.48H13Z"/><polygon class="cls-21" points="13.03 17.58 13.03 21.86 11.56 21.86 11.56 19.73 9.42 19.73 9.42 21.86 7.95 21.86 7.95 17.58 13.03 17.58"/><rect class="cls-22" x="7.95" y="10.48" width="5.08" height="6.85"/><rect class="cls-23" x="11.36" y="10.48" width="1.66" height="6.85"/><rect class="cls-23" x="20.68" y="10.48" width="1.63" height="6.85"/><path class="cls-24" d="M29.42,28.22a2.4,2.4,0,0,1-1.5,2.21A6.39,6.39,0,0,0,27.84,26,2.37,2.37,0,0,1,29.42,28.22Z"/><line class="cls-15" x1="3.26" y1="3.21" x2="3.26" y2="3.18"/><line class="cls-15" x1="20.4" y1="5.24" x2="20.4" y2="4.99"/></g></g></svg>