<svg xmlns="http://www.w3.org/2000/svg" viewBox="0 0 98.27 99.23"><defs><style>.cls-1{fill:none;stroke:#e0e0e0;stroke-linecap:round;stroke-miterlimit:10;stroke-width:2px;}</style></defs><title>circlestrokes</title><g id="Layer_2" data-name="Layer 2"><g id="Layer_1-2" data-name="Layer 1"><path class="cls-1" d="M37.55,1.63s2.2,8.43,2.57,11"/><path class="cls-1" d="M54.7,1s-.82,8.68-1.35,11.21"/><path class="cls-1" d="M71,6.27s-3.73,7.88-5.1,10.08"/><path class="cls-1" d="M84.56,16.81s-6.2,6.12-8.24,7.72"/><path class="cls-1" d="M93.68,31.34S85.76,35,83.29,35.78"/><path class="cls-1" d="M97.27,48.12s-8.68.7-11.27.61"/><path class="cls-1" d="M94.92,65.11s-8.4-2.31-10.81-3.28"/><path class="cls-1" d="M86.89,80.27s-7.1-5-9-6.78"/><path class="cls-1" d="M74.16,91.77s-5-7.17-6.17-9.45"/><path class="cls-1" d="M58.27,98.23s-2.2-8.43-2.57-11"/><path class="cls-1" d="M21.06,12.63a36.1,36.1,0,0,0,7.7,8.43"/><path class="cls-1" d="M5.29,29.86c2.57.36,8.8,7.07,8.8,7.07"/><path class="cls-1" d="M1,45.64c2.54-.53,10.69,3.64,10.69,3.64"/><path class="cls-1" d="M2.36,62c2.21-1.37,11.29-.24,11.29-.24"/><path class="cls-1" d="M9.22,76.8c1.6-2,10.52-4.08,10.52-4.08"/><path class="cls-1" d="M20.74,88.41C21.55,86,29.24,81,29.24,81"/><path class="cls-1" d="M35.55,95.38C35.46,92.79,41,85.49,41,85.49"/></g></g></svg>