<svg xmlns="http://www.w3.org/2000/svg" viewBox="0 0 167.89 108.05"><defs><style>.cls-1{fill:#f2eada;}</style></defs><title>curle</title><g id="Layer_2" data-name="Layer 2"><g id="Layer_1-2" data-name="Layer 1"><path class="cls-1" d="M1.05,4.81,41.17,35.4c4.75,3.62,10.54,9.43,17.13,8,4.11-.89,7.55-4.5,6.68-8.89-2.09-10.57-20-8-25.19-1.85A10.8,10.8,0,0,0,39,46.23c1.92,2.56,4.8,4.53,7.22,6.6l10.22,8.76c10.24,8.77,21.24,21.08,34.73,24.62,10.94,2.87,23.62-2.47,26.81-13.94,2.69-9.68-4.26-21-14.54-21.84C92,49.44,83.71,61.27,84.8,71.84,86.26,86,99.23,94.61,111.58,98.78A209.37,209.37,0,0,0,138,105.3c9.07,1.78,18.18,3.11,27.44,2.67,3.21-.15,3.23-5.16,0-5-11.06.53-21.91-1.51-32.67-3.86-9.56-2.09-19.8-4-28.45-8.79-8-4.37-15.73-12.63-14.57-22.43s12.69-17.07,20.38-8.75c7.35,8,1.63,19.44-7.76,22.26-9.94,3-19.55-4-26.79-10C67.86,65,60.32,58.34,52.68,51.8c-3.17-2.72-11-7.36-10.78-11.95.25-6.38,9.12-8.45,14.16-7.12a5.82,5.82,0,0,1,2.34,1c2.9,2.4-.65,5.3-3.57,4.69s-5.7-3.21-8-5q-6.95-5.28-13.89-10.59L3.58.49C1-1.46-1.47,2.88,1.05,4.81Z"/></g></g></svg>