<svg xmlns="http://www.w3.org/2000/svg" xmlns:xlink="http://www.w3.org/1999/xlink" viewBox="0 0 501.74 580.98"><defs><style>.cls-1{fill:#f2f2f3;}.cls-2,.cls-4{fill:none;stroke-miterlimit:10;}.cls-2{stroke:#ababab;}.cls-3{fill:#fff;}.cls-4{stroke:#f0efef;stroke-width:3px;}.cls-5{fill:#df6726;}.cls-6{fill:#231f20;}</style></defs><title>difference</title><g id="Layer_2" data-name="Layer 2"><g id="Layer_1-2" data-name="Layer 1"><path class="cls-1" d="M265.74,94.44a109.05,109.05,0,0,1,109.63-45.5c43.14,8,86.78,26.64,110.94,65.12,24.66,39.26,16.42,95.25-1.43,135.56-18.8,42.48-50.28,78-83,111-16.79,16.92-34.27,33.54-54.82,45.62-63.35,37.26-128.27,6.18-156.72-57.41C156.44,273.05,221.24,159.09,265.74,94.44Z"/><rect class="cls-2" x="0.5" y="98.87" width="315.99" height="435.2"/><image width="720" height="960" transform="translate(43.02 165.97) scale(0.35)" xlink:href="G:%5CUsers%5CDOGGED%5CDesktop%5Cdelete-after%5CRisen%20Genius%20Oct%202021%5C244540401_3333796873412227_7946249022619323576_n.jpg"/><rect class="cls-3" x="205.44" width="222.08" height="287.79"/><image width="720" height="960" transform="translate(216.43 10.5) scale(0.28)" xlink:href="G:%5CUsers%5CDOGGED%5CDesktop%5Cdelete-after%5CRisen%20Genius%20Oct%202021%5C244555058_3333804283411486_3642332416127847492_n.jpg"/><line class="cls-4" x1="225.84" y1="287.79" x2="225.84" y2="500.25"/><polygon class="cls-5" points="450.97 580.98 207.79 580.98 207.79 446.37 402.18 441.59 450.97 580.98"/><path class="cls-6" d="M53.33,382.54a5.19,5.19,0,0,0-1,.09A4,4,0,0,0,49,386.25h0A2.84,2.84,0,0,1,51.46,385a2.63,2.63,0,0,1,2.77,2.76,2.88,2.88,0,0,1-2.89,3c-1.56,0-3-1.13-3-3.58a5.19,5.19,0,0,1,1.54-3.88,5,5,0,0,1,2.47-1.19,4.78,4.78,0,0,1,1-.11Zm.23,5.22a2.1,2.1,0,0,0-2.26-2.23,2.56,2.56,0,0,0-2.14,1.24,1.22,1.22,0,0,0-.17.55c0,1.56.8,2.86,2.39,2.86A2.23,2.23,0,0,0,53.56,387.76Z"/><path class="cls-6" d="M61.09,386.18c0,3-1.14,4.53-3,4.53-1.43,0-2.75-1.31-2.8-4.33s1.49-4.43,3-4.43S61.09,383.32,61.09,386.18Zm-5.16.22c0,2.45.93,3.79,2.22,3.79,1.56,0,2.28-1.56,2.28-3.92s-.67-3.8-2.25-3.8C57,382.47,55.93,383.77,55.93,386.4Z"/><path class="cls-6" d="M65.8,384.46c0,1.81-.85,2.69-1.93,2.69S62,386.37,62,384.62,63,382,64,382,65.8,382.77,65.8,384.46Zm-3.23.09c0,1.34.53,2.16,1.33,2.16s1.34-.83,1.34-2.2-.39-2.12-1.33-2.12C63.13,382.39,62.57,383.21,62.57,384.55Zm1.16,6.16L69,382h.53l-5.24,8.76Zm7.51-2.78c0,1.81-.84,2.69-1.92,2.69s-1.83-.78-1.86-2.53,1-2.67,2-2.67S71.24,386.24,71.24,387.93ZM68,388c0,1.34.53,2.16,1.32,2.16s1.34-.83,1.34-2.2-.39-2.12-1.32-2.12C68.58,385.86,68,386.68,68,388Z"/></g></g></svg>