<svg xmlns="http://www.w3.org/2000/svg" viewBox="0 0 98.64 98.64"><defs><style>.cls-1{fill:#5b93c1;opacity:0.45;}</style></defs><title>dottinvert</title><g id="Layer_2" data-name="Layer 2"><g id="Layer_1-2" data-name="Layer 1"><circle class="cls-1" cx="44.65" cy="3.36" r="3.36"/><circle class="cls-1" cx="57.17" cy="15.88" r="3.36"/><circle class="cls-1" cx="69.88" cy="28.58" r="3.36"/><circle class="cls-1" cx="82.58" cy="41.29" r="3.36"/><circle class="cls-1" cx="95.29" cy="53.99" r="3.36"/><circle class="cls-1" cx="34.33" cy="13.68" r="3.36"/><circle class="cls-1" cx="46.85" cy="26.2" r="3.36"/><circle class="cls-1" cx="59.55" cy="38.91" r="3.36"/><circle class="cls-1" cx="72.26" cy="51.61" r="3.36"/><circle class="cls-1" cx="84.96" cy="64.32" r="3.36"/><circle class="cls-1" cx="24" cy="24" r="3.36"/><circle class="cls-1" cx="36.52" cy="36.52" r="3.36"/><circle class="cls-1" cx="49.23" cy="49.23" r="3.36"/><circle class="cls-1" cx="61.93" cy="61.93" r="3.36"/><circle class="cls-1" cx="74.64" cy="74.64" r="3.36"/><circle class="cls-1" cx="13.68" cy="34.33" r="3.36"/><circle class="cls-1" cx="26.2" cy="46.85" r="3.36"/><circle class="cls-1" cx="38.91" cy="59.55" r="3.36"/><circle class="cls-1" cx="51.61" cy="72.26" r="3.36"/><circle class="cls-1" cx="64.32" cy="84.96" r="3.36"/><circle class="cls-1" cx="3.36" cy="44.65" r="3.36"/><circle class="cls-1" cx="15.88" cy="57.17" r="3.36"/><circle class="cls-1" cx="28.58" cy="69.88" r="3.36"/><circle class="cls-1" cx="41.29" cy="82.58" r="3.36"/><circle class="cls-1" cx="53.99" cy="95.29" r="3.36"/></g></g></svg>