<svg xmlns="http://www.w3.org/2000/svg" viewBox="0 0 149.71 124.45"><defs><style>.cls-1{fill:#5b93c1;opacity:0.45;}</style></defs><title>dotts</title><g id="Layer_2" data-name="Layer 2"><g id="Layer_1-2" data-name="Layer 1"><circle class="cls-1" cx="6.42" cy="6.42" r="6.42"/><circle class="cls-1" cx="40.26" cy="6.42" r="6.42"/><circle class="cls-1" cx="74.6" cy="6.42" r="6.42"/><circle class="cls-1" cx="108.95" cy="6.42" r="6.42"/><circle class="cls-1" cx="143.29" cy="6.42" r="6.42"/><circle class="cls-1" cx="6.42" cy="34.32" r="6.42"/><circle class="cls-1" cx="40.26" cy="34.32" r="6.42"/><circle class="cls-1" cx="74.6" cy="34.32" r="6.42"/><circle class="cls-1" cx="108.95" cy="34.32" r="6.42"/><circle class="cls-1" cx="143.29" cy="34.32" r="6.42"/><circle class="cls-1" cx="6.42" cy="62.22" r="6.42"/><circle class="cls-1" cx="40.26" cy="62.22" r="6.42"/><circle class="cls-1" cx="74.6" cy="62.22" r="6.42"/><circle class="cls-1" cx="108.95" cy="62.22" r="6.42"/><circle class="cls-1" cx="143.29" cy="62.22" r="6.42"/><circle class="cls-1" cx="6.42" cy="90.13" r="6.42"/><circle class="cls-1" cx="40.26" cy="90.13" r="6.42"/><circle class="cls-1" cx="74.6" cy="90.13" r="6.42"/><circle class="cls-1" cx="108.95" cy="90.13" r="6.42"/><circle class="cls-1" cx="143.29" cy="90.13" r="6.42"/><circle class="cls-1" cx="6.42" cy="118.03" r="6.42"/><circle class="cls-1" cx="40.26" cy="118.03" r="6.42"/><circle class="cls-1" cx="74.6" cy="118.03" r="6.42"/><circle class="cls-1" cx="108.95" cy="118.03" r="6.42"/><circle class="cls-1" cx="143.29" cy="118.03" r="6.42"/></g></g></svg>