<svg xmlns="http://www.w3.org/2000/svg" viewBox="0 0 47.81 29.49"><defs><style>.cls-1{fill:#2d867f;}</style></defs><title>flower</title><g id="Layer_2" data-name="Layer 2"><g id="Layer_1-2" data-name="Layer 1"><path class="cls-1" d="M.56,2.38c4.14-3.93,10.57-.51,13.8,2.91,1.37,1.46,2.74,4.33.54,5.88l-2.47.93C9.55,11.86,9,10.44,10.69,7.86c1.7-1.2,4.73-1.09,6.66-.72,4.62.9,7.47,4,8.9,8.17,1.49,4.39,2.66,8.9,4,13.34a.33.33,0,0,0,.64-.09c.35-9.13,7.41-17.12,16.7-18.95.41-.08.24-.69-.17-.61-9.58,1.89-16.82,10.16-17.18,19.56l.64-.08c-1.4-4.69-2.55-9.54-4.26-14.13a11.77,11.77,0,0,0-5.5-6.54A12.65,12.65,0,0,0,13,6.48c-1.85.34-4.81,1.33-4.31,3.69,1.08,5.08,10.11,1.83,7.51-3.5-1.32-2.69-4.89-5-7.66-6S2.39-.24.1,1.93c-.3.29.16.73.46.45Z"/><path class="cls-1" d="M36.13,9.75a5.87,5.87,0,0,1,4.55-5c.41-.1.23-.7-.17-.61a6.54,6.54,0,0,0-5,5.59c0,.4.61.4.65,0Z"/><path class="cls-1" d="M34.74,27.08a8.62,8.62,0,0,1,7.54-3.25c.42,0,.42-.59,0-.63a9.28,9.28,0,0,0-8.1,3.56c-.25.32.31.64.56.32Z"/><path class="cls-1" d="M37.54,29.48a28.48,28.48,0,0,1,8.12-.84c.42,0,.42-.61,0-.63a29.34,29.34,0,0,0-8.3.86c-.4.1-.23.71.18.61Z"/></g></g></svg>