<svg xmlns="http://www.w3.org/2000/svg" viewBox="0 0 28 27"><defs><style>.cls-1{fill:#f16a24;}</style></defs><title>health_1</title><g id="Layer_2" data-name="Layer 2"><g id="Layer_1-2" data-name="Layer 1"><path class="cls-1" d="M14,6a3,3,0,1,0-3-3A3,3,0,0,0,14,6Z"/><path class="cls-1" d="M27.68,8.27l-7-6.49A1,1,0,0,0,19,2.59c0,.14,0,.27,0,.41A5,5,0,0,1,9,3c0-.14,0-.27,0-.41a1,1,0,0,0-1.67-.81l-7,6.49A1,1,0,0,0,.71,10l8.94,2.75C8.09,13.29,7,14.23,7,15.5a2.49,2.49,0,0,0,1.14,2,1,1,0,0,0,1.21-1.59c-.29-.22-.35-.37-.35-.41,0-.34,1.38-1.26,4-1.46v3c-2.34.26-4,1.44-4,2.94a2.75,2.75,0,0,0,1.84,2.37,1.07,1.07,0,0,0,.43.09,1,1,0,0,0,.42-1.91c-.52-.24-.69-.49-.69-.55s.71-.73,2-.92V24a1,1,0,0,0,2,0v-.85c.63.21,1,.57,1,.85s-.78,1-2,1-2-.59-2-1a1,1,0,0,0-2,0c0,1.68,1.76,3,4,3s4-1.32,4-3c0-1.42-1.26-2.57-3-2.9V19c3.12-.2,6-1.38,6-3.46,0-1.27-1.09-2.21-2.65-2.79L27.29,10a1,1,0,0,0,.39-1.69ZM19,15.5c0,.34-1.38,1.26-4,1.46V14C17.62,14.24,19,15.16,19,15.5Z"/></g></g></svg>