<svg xmlns="http://www.w3.org/2000/svg" viewBox="0 0 28 31"><defs><style>.cls-1{fill:#1b2a3c;}</style></defs><title>health</title><g id="Layer_2" data-name="Layer 2"><g id="Layer_1-2" data-name="Layer 1"><path class="cls-1" d="M27.86,16.49A1,1,0,0,0,27,16a7,7,0,0,0-5.6,2.8L20.5,20A6,6,0,0,1,16,22H13a1,1,0,0,1,0-2h1.88A3.07,3.07,0,0,0,18,17.11V17a1,1,0,0,0-1-1H10.93A9.25,9.25,0,0,0,2.8,20.23L.15,24.47a1,1,0,0,0,0,1.05l3,5a1,1,0,0,0,.64.47L4,31a1,1,0,0,0,.55-.17A22.77,22.77,0,0,1,17.28,27a9.07,9.07,0,0,0,7.92-4.7l2.67-4.81A1,1,0,0,0,27.86,16.49Z" transform="translate(0 0)"/><path class="cls-1" d="M10.86,14H17A3,3,0,0,1,20,17v.2h0l6.21-6.41a6.43,6.43,0,0,0,0-8.89,6,6,0,0,0-8.72,0L17,2.37l-.49-.51a6,6,0,0,0-8.72,0,6.43,6.43,0,0,0,0,8.89ZM12,8h1.59l1.7-1.71A1,1,0,0,1,16.16,6a1,1,0,0,1,.73.54l1,2,1.17-2.93A1,1,0,0,1,19.9,5a1,1,0,0,1,.93.44l2,3a1,1,0,1,1-1.66,1.1l-1-1.41-1.29,3.23A1,1,0,0,1,18,12h0a1,1,0,0,1-.89-.55L15.73,8.69l-1,1A1.05,1.05,0,0,1,14,10H12a1,1,0,0,1,0-2Z" transform="translate(0 0)"/></g></g></svg>