<svg xmlns="http://www.w3.org/2000/svg" viewBox="0 0 5.86 9.73"><defs><style>.cls-1{fill:#f16a24;}</style></defs><title>left</title><g id="Layer_2" data-name="Layer 2"><g id="Layer_1-2" data-name="Layer 1"><path class="cls-1" d="M.36,5.23l.28.28L1,5.86,4.67,9.53a.71.71,0,0,0,1,0A.68.68,0,0,0,5.86,9a.72.72,0,0,0-.2-.5L2,4.87,5.66,1.2a.72.72,0,0,0,.2-.5.68.68,0,0,0-.2-.49.69.69,0,0,0-1,0L1,3.88l-.35.35-.28.28L0,4.87ZM1,4.59l4-4a.2.2,0,0,1,.28,0A.2.2,0,0,1,5.36.7.17.17,0,0,1,5.3.84l-4,4,.36.36L5.3,8.9A.17.17,0,0,1,5.36,9a.2.2,0,0,1-.06.14.2.2,0,0,1-.28,0L1.35,5.51,1,5.15.72,4.87Z"/></g></g></svg>