<svg xmlns="http://www.w3.org/2000/svg" viewBox="0 0 18.79 26.29"><defs><style>.cls-1{fill:#1b2a3c;}</style></defs><title>phone</title><g id="Layer_2" data-name="Layer 2"><g id="Layer_1-2" data-name="Layer 1"><path class="cls-1" d="M16.28,26.29H2.51A2.52,2.52,0,0,1,0,23.77V2.51A2.52,2.52,0,0,1,2.51,0H16.28a2.52,2.52,0,0,1,2.51,2.51V23.77A2.52,2.52,0,0,1,16.28,26.29ZM2.51,1.49a1,1,0,0,0-1,1V23.77a1,1,0,0,0,1,1H16.28a1,1,0,0,0,1-1V2.51a1,1,0,0,0-1-1Z"/><circle class="cls-1" cx="9.4" cy="21.66" r="1.44"/></g></g></svg>