<svg xmlns="http://www.w3.org/2000/svg" viewBox="0 0 5.86 9.73"><defs><style>.cls-1{fill:#f16a24;}</style></defs><title>right</title><g id="Layer_2" data-name="Layer 2"><g id="Layer_1-2" data-name="Layer 1"><path class="cls-1" d="M5.5,4.5l-.28-.28-.35-.35L1.19.2a.71.71,0,0,0-1,0A.68.68,0,0,0,0,.69a.72.72,0,0,0,.2.5L3.87,4.86.2,8.53A.72.72,0,0,0,0,9a.68.68,0,0,0,.2.49.67.67,0,0,0,.5.21.67.67,0,0,0,.49-.21L4.87,5.85l.35-.35.28-.28.36-.36Zm-.63.64-4,4a.2.2,0,0,1-.28,0A.2.2,0,0,1,.5,9a.17.17,0,0,1,.06-.14l4-4L4.23,4.5.56.83A.17.17,0,0,1,.5.69.2.2,0,0,1,.56.55a.2.2,0,0,1,.28,0L4.51,4.22l.36.36.27.28Z"/></g></g></svg>