<svg xmlns="http://www.w3.org/2000/svg" viewBox="0 0 100.3 47.41"><defs><style>.cls-1{fill:#4d8076;}</style></defs><title>smile</title><g id="Layer_2" data-name="Layer 2"><g id="Layer_1-2" data-name="Layer 1"><circle class="cls-1" cx="33.93" cy="35.71" r="6.39"/><circle class="cls-1" cx="62.91" cy="41.02" r="6.39"/><path class="cls-1" d="M98.3,39.92a2,2,0,0,1-1.78-1.09C87.59,21.38,75.34,10.36,60.11,6.07,32.24-1.78,3.33,15.61,3,15.78A2,2,0,1,1,1,12.37C2.19,11.61,31.6-6.1,61.17,2.21,77.53,6.81,90.62,18.52,100.08,37a2,2,0,0,1-.87,2.69A2,2,0,0,1,98.3,39.92Z"/></g></g></svg>