<svg xmlns="http://www.w3.org/2000/svg" viewBox="0 0 303.96 30.49"><defs><style>.cls-1{opacity:0.85;}.cls-2{fill:#f49f53;}</style></defs><title>straight line</title><g id="Layer_2" data-name="Layer 2"><g id="Layer_1-2" data-name="Layer 1"><g class="cls-1"><path class="cls-2" d="M48.25,30.49a306.74,306.74,0,0,1-47-3.65,1.5,1.5,0,0,1,.46-3A293.46,293.46,0,0,0,102,22.44c17.76-3.39,29.5-7.37,40.85-11.22,10.25-3.48,19.92-6.76,32.62-8.94,39.17-6.76,82.12,1.53,127.65,24.62a1.5,1.5,0,1,1-1.36,2.67C256.84,6.78,214.52-1.41,176,5.23c-12.47,2.15-22,5.4-32.17,8.83a284,284,0,0,1-41.25,11.33A289.24,289.24,0,0,1,48.25,30.49Z"/></g></g></g></svg>